{"accessors":[{"bufferView":2,"componentType":5126,"count":1286,"max":[0.015007653273642063,0.8859718441963196,-0.16936425864696503],"min":[-0.015007653273642063,0.4431471824645996,-1.2840787172317505],"type":"VEC3"},{"bufferView":2,"byteOffset":15432,"componentType":5126,"count":1286,"max":[0.9999706745147705,0.9951837062835693,0.7451764345169067],"min":[-0.9999706745147705,-0.030987314879894257,0.006379977334290743],"type":"VEC3"},{"bufferView":3,"componentType":5126,"count":1286,"max":[0.9445473551750183,0.9997740983963013,0.9954448938369751,1],"min":[-0.9445498585700989,-0.8305464386940002,-0.9999784827232361,-1],"type":"VEC4"},{"bufferView":1,"componentType":5126,"count":1286,"max":[0.7230586409568787,0.46411341428756714],"min":[0.5690882802009583,0],"type":"VEC2"},{"bufferView":1,"byteOffset":10288,"componentType":5126,"count":1286,"max":[0.7230586409568787,0.46411341428756714],"min":[0.5690882802009583,0],"type":"VEC2"},{"bufferView":1,"byteOffset":20576,"componentType":5126,"count":1286,"max":[0.7230586409568787,0.46411341428756714],"min":[0.5690882802009583,0],"type":"VEC2"},{"bufferView":1,"byteOffset":30864,"componentType":5126,"count":1286,"max":[0.7230586409568787,0.46411341428756714],"min":[0.5690882802009583,0],"type":"VEC2"},{"bufferView":0,"componentType":5125,"count":6912,"type":"SCALAR"},{"bufferView":2,"byteOffset":30864,"componentType":5126,"count":368,"max":[0.010462930426001549,0.8999470472335815,-1.1558692455291748],"min":[-0.010462930426001549,0.8724563121795654,-1.4080584049224854],"type":"VEC3"},{"bufferView":2,"byteOffset":35280,"componentType":5126,"count":368,"max":[0.9999435544013977,1,0.678001880645752],"min":[-0.9999434947967529,-0.641721785068512,-0.7839311957359314],"type":"VEC3"},{"bufferView":3,"byteOffset":20576,"componentType":5126,"count":368,"max":[0.9976967573165894,0.11416006088256836,0.9771481156349182,1],"min":[-0.9976965188980103,-0.9990243911743164,-0.9908720850944519,-1],"type":"VEC4"},{"bufferView":1,"byteOffset":41152,"componentType":5126,"count":368,"max":[0.6342071294784546,0.9350943565368652],"min":[0.626181960105896,0.8316447734832764],"type":"VEC2"},{"bufferView":1,"byteOffset":44096,"componentType":5126,"count":368,"max":[0.6342071294784546,0.9350943565368652],"min":[0.626181960105896,0.8316447734832764],"type":"VEC2"},{"bufferView":1,"byteOffset":47040,"componentType":5126,"count":368,"max":[0.6342071294784546,0.9350943565368652],"min":[0.626181960105896,0.8316447734832764],"type":"VEC2"},{"bufferView":1,"byteOffset":49984,"componentType":5126,"count":368,"max":[0.6342071294784546,0.9350943565368652],"min":[0.626181960105896,0.8316447734832764],"type":"VEC2"},{"bufferView":0,"byteOffset":27648,"componentType":5125,"count":1872,"type":"SCALAR"},{"bufferView":2,"byteOffset":39696,"componentType":5126,"count":2664,"max":[0.032375603914260864,0.8801745772361755,-1.064471960067749],"min":[-0.032375603914260864,0.3283769190311432,-1.401310920715332],"type":"VEC3"},{"bufferView":2,"byteOffset":71664,"componentType":5126,"count":2664,"max":[0.9988093376159668,0.7792762517929077,-0.04878038913011551],"min":[-0.9988091588020325,-0.9846901297569275,-0.9918784499168396],"type":"VEC3"},{"bufferView":3,"byteOffset":26464,"componentType":5126,"count":2664,"max":[0.9974466562271118,0.9987116456031799,0.9984926581382751,1],"min":[-0.9974632263183594,-0.9996025562286377,-0.9983711242675781,-1],"type":"VEC4"},{"bufferView":1,"byteOffset":52928,"componentType":5126,"count":2664,"max":[0.6769068241119385,0.8974834680557251],"min":[0.37977829575538635,0.6337417960166931],"type":"VEC2"},{"bufferView":1,"byteOffset":74240,"componentType":5126,"count":2664,"max":[0.6769068241119385,0.8974834680557251],"min":[0.37977829575538635,0.6337417960166931],"type":"VEC2"},{"bufferView":1,"byteOffset":95552,"componentType":5126,"count":2664,"max":[0.6769068241119385,0.8974834680557251],"min":[0.37977829575538635,0.6337417960166931],"type":"VEC2"},{"bufferView":1,"byteOffset":116864,"componentType":5126,"count":2664,"max":[0.6769068241119385,0.8974834680557251],"min":[0.37977829575538635,0.6337417960166931],"type":"VEC2"},{"bufferView":0,"byteOffset":35136,"componentType":5125,"count":14592,"type":"SCALAR"},{"bufferView":2,"byteOffset":103632,"componentType":5126,"count":1380,"max":[1.8447104692459106,0.7250369191169739,0.6752042770385742],"min":[-1.8447104692459106,0.5941998958587646,0.10421572625637054],"type":"VEC3"},{"bufferView":2,"byteOffset":120192,"componentType":5126,"count":1380,"max":[1,0.99970543384552,0.9972957968711853],"min":[-1,-0.9999616146087646,-0.9977098703384399],"type":"VEC3"},{"bufferView":3,"byteOffset":69088,"componentType":5126,"count":1380,"max":[0.9995306134223938,0.999994695186615,0.9999966025352478,1],"min":[-0.9995306134223938,-0.9963818788528442,-0.9999971985816956,-1],"type":"VEC4"},{"bufferView":1,"byteOffset":138176,"componentType":5126,"count":1380,"max":[0.9895169138908386,1.0000001192092896],"min":[0.1890469193458557,0],"type":"VEC2"},{"bufferView":1,"byteOffset":149216,"componentType":5126,"count":1380,"max":[0.9895169138908386,1.0000001192092896],"min":[0.1890469193458557,0],"type":"VEC2"},{"bufferView":1,"byteOffset":160256,"componentType":5126,"count":1380,"max":[0.9895169138908386,1.0000001192092896],"min":[0.1890469193458557,0],"type":"VEC2"},{"bufferView":1,"byteOffset":171296,"componentType":5126,"count":1380,"max":[0.9895169138908386,1.0000001192092896],"min":[0.1890469193458557,0],"type":"VEC2"},{"bufferView":0,"byteOffset":93504,"componentType":5125,"count":5832,"type":"SCALAR"},{"bufferView":2,"byteOffset":136752,"componentType":5126,"count":2982,"max":[0.1358492374420166,0.4998232126235962,1.218461513519287],"min":[-0.1358492374420166,0.29187634587287903,1.1566530466079712],"type":"VEC3"},{"bufferView":2,"byteOffset":172536,"componentType":5126,"count":2982,"max":[0.9997910857200623,0.9999943971633911,0.9917059540748596],"min":[-0.9997910857200623,-0.9988060593605042,-0.4477005898952484],"type":"VEC3"},{"bufferView":3,"byteOffset":91168,"componentType":5126,"count":2982,"max":[1,0.9987567663192749,1,1],"min":[-1,-0.9982272386550903,-0.9614615440368652,-1],"type":"VEC4"},{"bufferView":1,"byteOffset":182336,"componentType":5126,"count":2982,"max":[0.6980118751525879,0.9061605930328369],"min":[0.017773402854800224,0.6203896403312683],"type":"VEC2"},{"bufferView":1,"byteOffset":206192,"componentType":5126,"count":2982,"max":[0.6980118751525879,0.9061605930328369],"min":[0.017773402854800224,0.6203896403312683],"type":"VEC2"},{"bufferView":1,"byteOffset":230048,"componentType":5126,"count":2982,"max":[0.6980118751525879,0.9061605930328369],"min":[0.017773402854800224,0.6203896403312683],"type":"VEC2"},{"bufferView":1,"byteOffset":253904,"componentType":5126,"count":2982,"max":[0.6980118751525879,0.9061605930328369],"min":[0.017773402854800224,0.6203896403312683],"type":"VEC2"},{"bufferView":0,"byteOffset":116832,"componentType":5125,"count":14976,"type":"SCALAR"},{"bufferView":2,"byteOffset":208320,"componentType":5126,"count":616,"max":[0.046382926404476166,0.4589984118938446,1.218461513519287],"min":[-0.046382926404476166,0.3663792908191681,1.2026891708374023],"type":"VEC3"},{"bufferView":2,"byteOffset":215712,"componentType":5126,"count":616,"max":[0.9999488592147827,0.9999985694885254,0.9996696710586548],"min":[-0.9999488592147827,-0.9999988675117493,-0.08816565573215485],"type":"VEC3"},{"bufferView":1,"byteOffset":277760,"componentType":5126,"count":616,"max":[0.6980119347572327,0.9045842885971069],"min":[0.028433483093976974,0.6601117253303528],"type":"VEC2"},{"bufferView":0,"byteOffset":176736,"componentType":5125,"count":2688,"type":"SCALAR"},{"bufferView":2,"byteOffset":223104,"componentType":5126,"count":2260,"max":[0.39121654629707336,0.2446247935295105,0.40904879570007324],"min":[-0.39121654629707336,0.07011453807353973,0.2993775010108948],"type":"VEC3"},{"bufferView":2,"byteOffset":250224,"componentType":5126,"count":2260,"max":[0.8685634136199951,0.9996883869171143,0.9999754428863525],"min":[-0.8685474991798401,-0.9821416139602661,-0.999098002910614],"type":"VEC3"},{"bufferView":3,"byteOffset":138880,"componentType":5126,"count":2260,"max":[0.9989269971847534,0.9989107847213745,0.9999746680259705,1],"min":[-0.9989254474639893,-0.9999590516090393,-0.9999999403953552,-1],"type":"VEC4"},{"bufferView":1,"byteOffset":282688,"componentType":5126,"count":2260,"max":[0.9388918876647949,0.9379534125328064],"min":[0.46071314811706543,0.2725982964038849],"type":"VEC2"},{"bufferView":1,"byteOffset":300768,"componentType":5126,"count":2260,"max":[0.9388918876647949,0.9379534125328064],"min":[0.46071314811706543,0.2725982964038849],"type":"VEC2"},{"bufferView":1,"byteOffset":318848,"componentType":5126,"count":2260,"max":[0.9388918876647949,0.9379534125328064],"min":[0.46071314811706543,0.2725982964038849],"type":"VEC2"},{"bufferView":1,"byteOffset":336928,"componentType":5126,"count":2260,"max":[0.9388918876647949,0.9379534125328064],"min":[0.46071314811706543,0.2725982964038849],"type":"VEC2"},{"bufferView":0,"byteOffset":187488,"componentType":5125,"count":11520,"type":"SCALAR"},{"bufferView":2,"byteOffset":277344,"componentType":5126,"count":1270,"max":[0.45720043778419495,0.13488776981830597,0.5355319380760193],"min":[-0.45720043778419495,0.03648080304265022,0.19196517765522003],"type":"VEC3"},{"bufferView":2,"byteOffset":292584,"componentType":5126,"count":1270,"max":[0.9996243715286255,0.9989352226257324,1],"min":[-0.9996243715286255,-0.9999815225601196,-0.9999837279319763],"type":"VEC3"},{"bufferView":3,"byteOffset":175040,"componentType":5126,"count":1270,"max":[1,0.9999982118606567,0.9475446343421936,1],"min":[-1,-0.9999982118606567,-0.9475454688072205,-1],"type":"VEC4"},{"bufferView":1,"byteOffset":355008,"componentType":5126,"count":1270,"max":[0.9793989062309265,0.9585375189781189],"min":[0.033886510878801346,0.13629916310310364],"type":"VEC2"},{"bufferView":1,"byteOffset":365168,"componentType":5126,"count":1270,"max":[0.9793989062309265,0.9585375189781189],"min":[0.033886510878801346,0.13629916310310364],"type":"VEC2"},{"bufferView":1,"byteOffset":375328,"componentType":5126,"count":1270,"max":[0.9793989062309265,0.9585375189781189],"min":[0.033886510878801346,0.13629916310310364],"type":"VEC2"},{"bufferView":1,"byteOffset":385488,"componentType":5126,"count":1270,"max":[0.9793989062309265,0.9585375189781189],"min":[0.033886510878801346,0.13629916310310364],"type":"VEC2"},{"bufferView":0,"byteOffset":233568,"componentType":5125,"count":5472,"type":"SCALAR"},{"bufferView":2,"byteOffset":307824,"componentType":5126,"count":13166,"max":[0.020432153716683388,0.06384478509426117,0.08547056466341019],"min":[-0.8681020140647888,-0.05376608297228813,-0.03214031830430031],"type":"VEC3"},{"bufferView":2,"byteOffset":465816,"componentType":5126,"count":13166,"max":[0.9995788931846619,1,1],"min":[-0.9995793700218201,-1,-1],"type":"VEC3"},{"bufferView":3,"byteOffset":195360,"componentType":5126,"count":13166,"max":[1,0.9998843669891357,0.9997406005859375,1],"min":[-1,-0.9997398853302002,-0.99974125623703,-1],"type":"VEC4"},{"bufferView":1,"byteOffset":395648,"componentType":5126,"count":13166,"max":[1,1.0000001192092896],"min":[0,0],"type":"VEC2"},{"bufferView":1,"byteOffset":500976,"componentType":5126,"count":13166,"max":[1,1.0000001192092896],"min":[0,0],"type":"VEC2"},{"bufferView":1,"byteOffset":606304,"componentType":5126,"count":13166,"max":[1,1.0000001192092896],"min":[0,0],"type":"VEC2"},{"bufferView":1,"byteOffset":711632,"componentType":5126,"count":13166,"max":[1,1.0000001192092896],"min":[0,0],"type":"VEC2"},{"bufferView":0,"byteOffset":255456,"componentType":5125,"count":57600,"type":"SCALAR"},{"bufferView":2,"byteOffset":623808,"componentType":5126,"count":292,"max":[0.01751522347331047,0.04522227495908737,0.06684806942939758],"min":[-0.8651851415634155,-0.03514357656240463,-0.013517791405320168],"type":"VEC3"},{"bufferView":2,"byteOffset":627312,"componentType":5126,"count":292,"max":[1,0.7214365601539612,0.7214375138282776],"min":[-1,-0.7214364409446716,-0.7214382290840149],"type":"VEC3"},{"bufferView":1,"byteOffset":816960,"componentType":5126,"count":292,"max":[0.9402230978012085,0.6911876201629639],"min":[0.7615259885787964,0],"type":"VEC2"},{"bufferView":0,"byteOffset":485856,"componentType":5125,"count":1152,"type":"SCALAR"},{"bufferView":2,"byteOffset":630816,"componentType":5126,"count":2187,"max":[0.03353835642337799,0.13311341404914856,1.1181857585906982],"min":[-0.03353838995099068,0.034422002732753754,0.7746188044548035],"type":"VEC3"},{"bufferView":2,"byteOffset":657060,"componentType":5126,"count":2187,"max":[0.9999970197677612,0.9999803900718689,1],"min":[-0.9999970197677612,-0.9999991655349731,-0.9999994039535522],"type":"VEC3"},{"bufferView":3,"byteOffset":406016,"componentType":5126,"count":2187,"max":[1,0.9999991059303284,0.9974514842033386,1],"min":[-1,-0.9999991059303284,-0.9974520206451416,-1],"type":"VEC4"},{"bufferView":1,"byteOffset":819296,"componentType":5126,"count":2187,"max":[0.9668537378311157,0.9621706008911133],"min":[0.04119164124131203,0],"type":"VEC2"},{"bufferView":1,"byteOffset":836792,"componentType":5126,"count":2187,"max":[0.9668537378311157,0.9621706008911133],"min":[0.04119164124131203,0],"type":"VEC2"},{"bufferView":1,"byteOffset":854288,"componentType":5126,"count":2187,"max":[0.9668537378311157,0.9621706008911133],"min":[0.04119164124131203,0],"type":"VEC2"},{"bufferView":1,"byteOffset":871784,"componentType":5126,"count":2187,"max":[0.9668537378311157,0.9621706008911133],"min":[0.04119164124131203,0],"type":"VEC2"},{"bufferView":0,"byteOffset":490464,"componentType":5125,"count":10944,"type":"SCALAR"},{"bufferView":2,"byteOffset":683304,"componentType":5126,"count":584,"max":[0.01682363450527191,0.20641794800758362,0.9868355393409729],"min":[-0.01682363450527191,0.12392865121364594,0.9245916604995728],"type":"VEC3"},{"bufferView":2,"byteOffset":690312,"componentType":5126,"count":584,"max":[1,0.9902938008308411,0.9991076588630676],"min":[-1,-0.9893345236778259,-0.9999471306800842],"type":"VEC3"},{"bufferView":3,"byteOffset":441008,"componentType":5126,"count":584,"max":[0.9958996176719666,0.988423764705658,0.9997441172599792,1],"min":[-0.9996863007545471,-0.9887247085571289,-0.9647468328475952,1],"type":"VEC4"},{"bufferView":1,"byteOffset":889280,"componentType":5126,"count":584,"max":[0.788772463798523,0.9101127982139587],"min":[0,0.6162481904029846],"type":"VEC2"},{"bufferView":1,"byteOffset":893952,"componentType":5126,"count":584,"max":[0.788772463798523,0.9101127982139587],"min":[0,0.6162481904029846],"type":"VEC2"},{"bufferView":1,"byteOffset":898624,"componentType":5126,"count":584,"max":[0.788772463798523,0.9101127982139587],"min":[0,0.6162481904029846],"type":"VEC2"},{"bufferView":1,"byteOffset":903296,"componentType":5126,"count":584,"max":[0.788772463798523,0.9101127982139587],"min":[0,0.6162481904029846],"type":"VEC2"},{"bufferView":0,"byteOffset":534240,"componentType":5125,"count":2496,"type":"SCALAR"},{"bufferView":2,"byteOffset":697320,"componentType":5126,"count":132,"max":[0.5761515498161316,0.445289671421051,-0.827232301235199],"min":[-0.5761515498161316,0.42049679160118103,-1.1940672397613525],"type":"VEC3"},{"bufferView":2,"byteOffset":698904,"componentType":5126,"count":132,"max":[0.9997609257698059,0.9999808073043823,0.9831108450889587],"min":[-0.9997609257698059,-0.9999619126319885,-0.9999019503593445],"type":"VEC3"},{"bufferView":3,"byteOffset":450352,"componentType":5126,"count":132,"max":[0.18293151259422302,0.9999480247497559,0.983530580997467,1],"min":[-0.1829315572977066,-0.9999130368232727,-0.025812920182943344,-1],"type":"VEC4"},{"bufferView":1,"byteOffset":907968,"componentType":5126,"count":132,"max":[0.9970309138298035,0.9394791722297668],"min":[0.18904685974121094,0.327195405960083],"type":"VEC2"},{"bufferView":1,"byteOffset":909024,"componentType":5126,"count":132,"max":[0.9970309138298035,0.9394791722297668],"min":[0.18904685974121094,0.327195405960083],"type":"VEC2"},{"bufferView":1,"byteOffset":910080,"componentType":5126,"count":132,"max":[0.9970309138298035,0.9394791722297668],"min":[0.18904685974121094,0.327195405960083],"type":"VEC2"},{"bufferView":1,"byteOffset":911136,"componentType":5126,"count":132,"max":[0.9970309138298035,0.9394791722297668],"min":[0.18904685974121094,0.327195405960083],"type":"VEC2"},{"bufferView":0,"byteOffset":544224,"componentType":5125,"count":312,"type":"SCALAR"},{"bufferView":2,"byteOffset":700488,"componentType":5126,"count":64,"max":[0.5219361186027527,0.4440962076187134,-1.0931283235549927],"min":[-0.5219361186027527,0.42543870210647583,-1.2724088430404663],"type":"VEC3"},{"bufferView":2,"byteOffset":701256,"componentType":5126,"count":64,"max":[0.9985930919647217,0.9986485838890076,0.9986059069633484],"min":[-0.9985930919647217,-0.9989112019538879,-0.9668657779693604],"type":"VEC3"},{"bufferView":3,"byteOffset":452464,"componentType":5126,"count":64,"max":[0.03790637105703354,0.9999161958694458,0.9988977313041687,1],"min":[-0.037906087934970856,-0.9823089241981506,-0.05278685316443443,-1],"type":"VEC4"},{"bufferView":1,"byteOffset":912192,"componentType":5126,"count":64,"max":[1,0.829312801361084],"min":[0.30067646503448486,0.27973318099975586],"type":"VEC2"},{"bufferView":1,"byteOffset":912704,"componentType":5126,"count":64,"max":[1,0.829312801361084],"min":[0.30067646503448486,0.27973318099975586],"type":"VEC2"},{"bufferView":1,"byteOffset":913216,"componentType":5126,"count":64,"max":[1,0.829312801361084],"min":[0.30067646503448486,0.27973318099975586],"type":"VEC2"},{"bufferView":1,"byteOffset":913728,"componentType":5126,"count":64,"max":[1,0.829312801361084],"min":[0.30067646503448486,0.27973318099975586],"type":"VEC2"},{"bufferView":0,"byteOffset":545472,"componentType":5125,"count":120,"type":"SCALAR"},{"bufferView":2,"byteOffset":702024,"componentType":5126,"count":1916,"max":[0.04425625875592232,0.045199185609817505,0.06269657611846924],"min":[-0.04425625875592232,-0.04288262128829956,-0.08671450614929199],"type":"VEC3"},{"bufferView":2,"byteOffset":725016,"componentType":5126,"count":1916,"max":[0.9939021468162537,0.9859782457351685,0.9997270703315735],"min":[-0.9939021468162537,-0.9842519164085388,0.10992488265037537],"type":"VEC3"},{"bufferView":1,"byteOffset":914240,"componentType":5126,"count":1916,"max":[1,1],"min":[0,0],"type":"VEC2"},{"bufferView":0,"byteOffset":545952,"componentType":5125,"count":10560,"type":"SCALAR"},{"bufferView":2,"byteOffset":748008,"componentType":5126,"count":500,"max":[0.0031258861999958754,0.2582740783691406,0.020027244463562965],"min":[-0.018059980124235153,-0.10994366556406021,-0.31696513295173645],"type":"VEC3"},{"bufferView":2,"byteOffset":754008,"componentType":5126,"count":500,"max":[1,-0.00023419680655933917,0.0022728480398654938],"min":[0.9404042363166809,-0.3399515151977539,-0.013848704285919666],"type":"VEC3"},{"bufferView":3,"byteOffset":453488,"componentType":5126,"count":500,"max":[0.009463259018957615,0.9090354442596436,-0.16749970614910126,1],"min":[-0.041296642273664474,-0.9858720302581787,-0.9999995231628418,1],"type":"VEC4"},{"bufferView":1,"byteOffset":929568,"componentType":5126,"count":500,"max":[0.6980119347572327,0.8316446542739868],"min":[0.569088339805603,0.6834139823913574],"type":"VEC2"},{"bufferView":1,"byteOffset":933568,"componentType":5126,"count":500,"max":[0.6980119347572327,0.8316446542739868],"min":[0.569088339805603,0.6834139823913574],"type":"VEC2"},{"bufferView":1,"byteOffset":937568,"componentType":5126,"count":500,"max":[0.6980119347572327,0.8316446542739868],"min":[0.569088339805603,0.6834139823913574],"type":"VEC2"},{"bufferView":1,"byteOffset":941568,"componentType":5126,"count":500,"max":[0.6980119347572327,0.8316446542739868],"min":[0.569088339805603,0.6834139823913574],"type":"VEC2"},{"bufferView":0,"byteOffset":588192,"componentType":5125,"count":2640,"type":"SCALAR"},{"bufferView":2,"byteOffset":760008,"componentType":5126,"count":1888,"max":[0.016347991302609444,0.11460928618907928,-0.22668664157390594],"min":[-0.031760383397340775,0.05412683263421059,-0.2984308898448944],"type":"VEC3"},{"bufferView":2,"byteOffset":782664,"componentType":5126,"count":1888,"max":[0.9999982118606567,1,1],"min":[-0.9999982118606567,-1,-1],"type":"VEC3"},{"bufferView":1,"byteOffset":945568,"componentType":5126,"count":1888,"max":[1.0000001192092896,0.9861743450164795],"min":[0,0],"type":"VEC2"},{"bufferView":0,"byteOffset":598752,"componentType":5125,"count":8448,"type":"SCALAR"},{"bufferView":2,"byteOffset":805320,"componentType":5126,"count":244,"max":[0.002049505477771163,0.24115918576717377,-0.04546300321817398],"min":[-0.008060786873102188,0.12634725868701935,-0.2997269928455353],"type":"VEC3"},{"bufferView":2,"byteOffset":808248,"componentType":5126,"count":244,"max":[1,0.9997614622116089,0.9912788271903992],"min":[-1,-0.9999933242797852,-0.9997318983078003],"type":"VEC3"},{"bufferView":3,"byteOffset":461488,"componentType":5126,"count":244,"max":[1,0.9999993443489075,0.9969286322593689,1],"min":[-0.0014287775848060846,-0.975517749786377,-0.9999659061431885,-1],"type":"VEC4"},{"bufferView":1,"byteOffset":960672,"componentType":5126,"count":244,"max":[0.3284738063812256,1.0000001192092896],"min":[0.1647370159626007,0.5799559354782104],"type":"VEC2"},{"bufferView":1,"byteOffset":962624,"componentType":5126,"count":244,"max":[0.3284738063812256,1.0000001192092896],"min":[0.1647370159626007,0.5799559354782104],"type":"VEC2"},{"bufferView":1,"byteOffset":964576,"componentType":5126,"count":244,"max":[0.3284738063812256,1.0000001192092896],"min":[0.1647370159626007,0.5799559354782104],"type":"VEC2"},{"bufferView":1,"byteOffset":966528,"componentType":5126,"count":244,"max":[0.3284738063812256,1.0000001192092896],"min":[0.1647370159626007,0.5799559354782104],"type":"VEC2"},{"bufferView":0,"byteOffset":632544,"componentType":5125,"count":864,"type":"SCALAR"},{"bufferView":2,"byteOffset":811176,"componentType":5126,"count":1242,"max":[0.0006893675308674574,0.25828561186790466,0.02011379785835743],"min":[-0.039328623563051224,-0.10994366556406021,-0.31697946786880493],"type":"VEC3"},{"bufferView":2,"byteOffset":826080,"componentType":5126,"count":1242,"max":[1,0.9999934434890747,0.9999354481697083],"min":[-1,-0.9997521638870239,-0.9996036887168884],"type":"VEC3"},{"bufferView":1,"byteOffset":968480,"componentType":5126,"count":1242,"max":[1.0000001192092896,0.16962802410125732],"min":[0.7141189575195312,0],"type":"VEC2"},{"bufferView":0,"byteOffset":636000,"componentType":5125,"count":6000,"type":"SCALAR"},{"bufferView":2,"byteOffset":840984,"componentType":5126,"count":4502,"max":[0.18285690248012543,0.6716538667678833,0.839798629283905],"min":[-0.18285688757896423,0.4599650502204895,-0.06814571470022202],"type":"VEC3"},{"bufferView":2,"byteOffset":895008,"componentType":5126,"count":4502,"max":[1,0.9999228715896606,0.9997801780700684],"min":[-1,-0.9999963045120239,-0.9999852180480957],"type":"VEC3"},{"bufferView":3,"byteOffset":465392,"componentType":5126,"count":4502,"max":[1,0.999993622303009,0.994245707988739,1],"min":[-0.9999998807907104,-0.9999936819076538,-0.9293988943099976,-1],"type":"VEC4"},{"bufferView":1,"byteOffset":978416,"componentType":5126,"count":4502,"max":[1.0000001192092896,0.9744824171066284],"min":[0,0],"type":"VEC2"},{"bufferView":1,"byteOffset":1014432,"componentType":5126,"count":4502,"max":[1.0000001192092896,0.9744824171066284],"min":[0,0],"type":"VEC2"},{"bufferView":1,"byteOffset":1050448,"componentType":5126,"count":4502,"max":[1.0000001192092896,0.9744824171066284],"min":[0,0],"type":"VEC2"},{"bufferView":1,"byteOffset":1086464,"componentType":5126,"count":4502,"max":[1.0000001192092896,0.9744824171066284],"min":[0,0],"type":"VEC2"},{"bufferView":0,"byteOffset":660000,"componentType":5125,"count":21312,"type":"SCALAR"},{"bufferView":2,"byteOffset":949032,"componentType":5126,"count":1886,"max":[0.024725448340177536,0.357663094997406,0.012390313670039177],"min":[-0.024725526571273804,-0.3576631546020508,-0.029381077736616135],"type":"VEC3"},{"bufferView":2,"byteOffset":971664,"componentType":5126,"count":1886,"max":[0.9999926686286926,0.997698187828064,0.996397852897644],"min":[-0.9999926686286926,-0.9976981282234192,-0.9999690055847168],"type":"VEC3"},{"bufferView":3,"byteOffset":537424,"componentType":5126,"count":1886,"max":[0.9344187378883362,0.978381872177124,0.9999775886535645,1],"min":[-0.9999516010284424,-0.9797713160514832,-0.9996969103813171,-1],"type":"VEC4"},{"bufferView":1,"byteOffset":1122480,"componentType":5126,"count":1886,"max":[1.0000001192092896,1.0000001192092896],"min":[0,0],"type":"VEC2"},{"bufferView":1,"byteOffset":1137568,"componentType":5126,"count":1886,"max":[1.0000001192092896,1.0000001192092896],"min":[0,0],"type":"VEC2"},{"bufferView":1,"byteOffset":1152656,"componentType":5126,"count":1886,"max":[1.0000001192092896,1.0000001192092896],"min":[0,0],"type":"VEC2"},{"bufferView":0,"byteOffset":745248,"componentType":5125,"count":9600,"type":"SCALAR"},{"bufferView":2,"byteOffset":994296,"componentType":5126,"count":272,"max":[0.0199130829423666,0.3428683876991272,-0.01568663865327835],"min":[-0.019913239404559135,-0.342868447303772,-0.02925856038928032],"type":"VEC3"},{"bufferView":2,"byteOffset":997560,"componentType":5126,"count":272,"max":[0.9970555305480957,0.256468802690506,0.996397852897644],"min":[-0.9970556497573853,-0.25646746158599854,-0.9994269609451294],"type":"VEC3"},{"bufferView":1,"byteOffset":1167744,"componentType":5126,"count":272,"max":[0.9209617376327515,0.9642252326011658],"min":[0.12219414114952087,0.0353657566010952],"type":"VEC2"},{"bufferView":0,"byteOffset":783648,"componentType":5125,"count":768,"type":"SCALAR"},{"bufferView":2,"byteOffset":1000824,"componentType":5126,"count":770,"max":[0.1541060209274292,0.7032175660133362,0.2644388675689697],"min":[-0.1541060209274292,0.6265856623649597,0.18632416427135468],"type":"VEC3"},{"bufferView":2,"byteOffset":1010064,"componentType":5126,"count":770,"max":[0.9981026649475098,0.9123930335044861,0.7051286101341248],"min":[-0.9981023669242859,-0.6295018196105957,-0.9746161699295044],"type":"VEC3"},{"bufferView":3,"byteOffset":567600,"componentType":5126,"count":770,"max":[0.9999992847442627,0.8204179406166077,0.7276901602745056,1],"min":[-0.9999990463256836,-0.5698534250259399,-0.883945643901825,-1],"type":"VEC4"},{"bufferView":1,"byteOffset":1169920,"componentType":5126,"count":770,"max":[0.8664042949676514,0.9154651761054993],"min":[0.6431422829627991,0.7975133657455444],"type":"VEC2"},{"bufferView":1,"byteOffset":1176080,"componentType":5126,"count":770,"max":[0.8664042949676514,0.9154651761054993],"min":[0.6431422829627991,0.7975133657455444],"type":"VEC2"},{"bufferView":1,"byteOffset":1182240,"componentType":5126,"count":770,"max":[0.8664042949676514,0.9154651761054993],"min":[0.6431422829627991,0.7975133657455444],"type":"VEC2"},{"bufferView":1,"byteOffset":1188400,"componentType":5126,"count":770,"max":[0.8664042949676514,0.9154651761054993],"min":[0.6431422829627991,0.7975133657455444],"type":"VEC2"},{"bufferView":0,"byteOffset":786720,"componentType":5125,"count":3456,"type":"SCALAR"},{"bufferView":2,"byteOffset":1019304,"componentType":5126,"count":142,"max":[0.8575398921966553,0.6654813289642334,0.22062984108924866],"min":[-0.8575398921966553,0.5942646861076355,0.10266051441431046],"type":"VEC3"},{"bufferView":2,"byteOffset":1021008,"componentType":5126,"count":142,"max":[0.9999988079071045,0.9877638220787048,0.9977098107337952],"min":[-0.9999988079071045,-0.9972861409187317,-0.6679418683052063],"type":"VEC3"},{"bufferView":3,"byteOffset":579920,"componentType":5126,"count":142,"max":[0.1169605404138565,0.9920522570610046,0.9998192191123962,1],"min":[-0.1169619932770729,-0.9952002167701721,-0.999994158744812,-1],"type":"VEC4"},{"bufferView":1,"byteOffset":1194560,"componentType":5126,"count":142,"max":[0.985361635684967,0.9184662103652954],"min":[0.4956129193305969,0],"type":"VEC2"},{"bufferView":1,"byteOffset":1195696,"componentType":5126,"count":142,"max":[0.985361635684967,0.9184662103652954],"min":[0.4956129193305969,0],"type":"VEC2"},{"bufferView":1,"byteOffset":1196832,"componentType":5126,"count":142,"max":[0.985361635684967,0.9184662103652954],"min":[0.4956129193305969,0],"type":"VEC2"},{"bufferView":1,"byteOffset":1197968,"componentType":5126,"count":142,"max":[0.985361635684967,0.9184662103652954],"min":[0.4956129193305969,0],"type":"VEC2"},{"bufferView":0,"byteOffset":800544,"componentType":5125,"count":432,"type":"SCALAR"},{"bufferView":2,"byteOffset":1022712,"componentType":5126,"count":224,"max":[1.7782071828842163,0.7005363702774048,0.31535783410072327],"min":[-1.7782071828842163,0.6436884999275208,0.10205402970314026],"type":"VEC3"},{"bufferView":2,"byteOffset":1025400,"componentType":5126,"count":224,"max":[1,0.990373969078064,0.9644556045532227],"min":[-1,-0.9990397095680237,-0.6363980174064636],"type":"VEC3"},{"bufferView":3,"byteOffset":582192,"componentType":5126,"count":224,"max":[0.9857320785522461,0.9996405839920044,0.9983726143836975,1],"min":[-0.9857318997383118,-0.9993324875831604,-0.987660825252533,-1],"type":"VEC4"},{"bufferView":1,"byteOffset":1199104,"componentType":5126,"count":224,"max":[0.9075191020965576,0.9173486828804016],"min":[0.5056430697441101,0],"type":"VEC2"},{"bufferView":1,"byteOffset":1200896,"componentType":5126,"count":224,"max":[0.9075191020965576,0.9173486828804016],"min":[0.5056430697441101,0],"type":"VEC2"},{"bufferView":1,"byteOffset":1202688,"componentType":5126,"count":224,"max":[0.9075191020965576,0.9173486828804016],"min":[0.5056430697441101,0],"type":"VEC2"},{"bufferView":1,"byteOffset":1204480,"componentType":5126,"count":224,"max":[0.9075191020965576,0.9173486828804016],"min":[0.5056430697441101,0],"type":"VEC2"},{"bufferView":0,"byteOffset":802272,"componentType":5125,"count":792,"type":"SCALAR"},{"bufferView":2,"byteOffset":1028088,"componentType":5126,"count":1888,"max":[0.6257897615432739,0.6373411417007446,0.5385621786117554],"min":[-0.6257897615432739,0.6304578185081482,0.5095561146736145],"type":"VEC3"},{"bufferView":2,"byteOffset":1050744,"componentType":5126,"count":1888,"max":[0.999778687953949,0.9999517202377319,0.9997512102127075],"min":[-0.9997847676277161,-0.9989758729934692,-0.9997588992118835],"type":"VEC3"},{"bufferView":1,"byteOffset":1206272,"componentType":5126,"count":1888,"max":[0.7111583948135376,1.0000001192092896],"min":[0.051864929497241974,0.578061044216156],"type":"VEC2"},{"bufferView":0,"byteOffset":805440,"componentType":5125,"count":8448,"type":"SCALAR"},{"bufferView":2,"byteOffset":1073400,"componentType":5126,"count":2158,"max":[0.17629699409008026,0.5472184419631958,0.8382872343063354],"min":[-0.17629699409008026,0.4738570749759674,0.7552773356437683],"type":"VEC3"},{"bufferView":2,"byteOffset":1099296,"componentType":5126,"count":2158,"max":[0.9876457452774048,0.9983450770378113,0.9985266923904419],"min":[-0.9876474142074585,-0.9986193180084229,-0.9999984502792358],"type":"VEC3"},{"bufferView":3,"byteOffset":585776,"componentType":5126,"count":2158,"max":[0.9968509078025818,0.9449701309204102,0.9986193180084229,1],"min":[-0.9968547224998474,-0.9971418976783752,-0.9983450770378113,-1],"type":"VEC4"},{"bufferView":1,"byteOffset":1221376,"componentType":5126,"count":2158,"max":[1.0000001192092896,1],"min":[0,0],"type":"VEC2"},{"bufferView":1,"byteOffset":1238640,"componentType":5126,"count":2158,"max":[1.0000001192092896,1],"min":[0,0],"type":"VEC2"},{"bufferView":1,"byteOffset":1255904,"componentType":5126,"count":2158,"max":[1.0000001192092896,1],"min":[0,0],"type":"VEC2"},{"bufferView":1,"byteOffset":1273168,"componentType":5126,"count":2158,"max":[1.0000001192092896,1],"min":[0,0],"type":"VEC2"},{"bufferView":0,"byteOffset":839232,"componentType":5125,"count":10944,"type":"SCALAR"},{"bufferView":2,"byteOffset":1125192,"componentType":5126,"count":666,"max":[0.1270841807126999,0.30574098229408264,0.8010687232017517],"min":[-0.1270841807126999,0.2695940434932709,0.7550036311149597],"type":"VEC3"},{"bufferView":2,"byteOffset":1133184,"componentType":5126,"count":666,"max":[1,0.9990015625953674,0.9990015625953674],"min":[-1,-0.9990015029907227,-0.9990013837814331],"type":"VEC3"},{"bufferView":3,"byteOffset":620304,"componentType":5126,"count":666,"max":[1,0.999022901058197,0.9989820718765259,1],"min":[-1,-0.9990014433860779,-0.998982310295105,-1],"type":"VEC4"},{"bufferView":1,"byteOffset":1290432,"componentType":5126,"count":666,"max":[1,1],"min":[0,0],"type":"VEC2"},{"bufferView":1,"byteOffset":1295760,"componentType":5126,"count":666,"max":[1,1],"min":[0,0],"type":"VEC2"},{"bufferView":1,"byteOffset":1301088,"componentType":5126,"count":666,"max":[1,1],"min":[0,0],"type":"VEC2"},{"bufferView":1,"byteOffset":1306416,"componentType":5126,"count":666,"max":[1,1],"min":[0,0],"type":"VEC2"},{"bufferView":0,"byteOffset":883008,"componentType":5125,"count":1008,"type":"SCALAR"},{"bufferView":2,"byteOffset":1141176,"componentType":5126,"count":16002,"max":[0.1807336062192917,0.6716538667678833,1.1727699041366577],"min":[-0.1807336062192917,0.18183623254299164,-1.0698939561843872],"type":"VEC3"},{"bufferView":2,"byteOffset":1333200,"componentType":5126,"count":16002,"max":[1,1,0.9991840124130249],"min":[-1,-1,-0.9998897314071655],"type":"VEC3"},{"bufferView":3,"byteOffset":630960,"componentType":5126,"count":16002,"max":[1,0.9764266014099121,0.9986023902893066,1],"min":[-1,-0.9999998807907104,-0.9959269762039185,-1],"type":"VEC4"},{"bufferView":1,"byteOffset":1311744,"componentType":5126,"count":16002,"max":[0.8601358532905579,0.8823288083076477],"min":[0,0],"type":"VEC2"},{"bufferView":1,"byteOffset":1439760,"componentType":5126,"count":16002,"max":[0.8601358532905579,0.8823288083076477],"min":[0,0],"type":"VEC2"},{"bufferView":1,"byteOffset":1567776,"componentType":5126,"count":16002,"max":[0.8601358532905579,0.8823288083076477],"min":[0,0],"type":"VEC2"},{"bufferView":1,"byteOffset":1695792,"componentType":5126,"count":16002,"max":[0.8601358532905579,0.8823288083076477],"min":[0,0],"type":"VEC2"},{"bufferView":0,"byteOffset":887040,"componentType":5125,"count":81168,"type":"SCALAR"},{"bufferView":2,"byteOffset":1525224,"componentType":5126,"count":15430,"max":[0.1783992350101471,0.667733907699585,1.1654378175735474],"min":[-0.1783992350101471,0.18260426819324493,-1.055761694908142],"type":"VEC3"},{"bufferView":2,"byteOffset":1710384,"componentType":5126,"count":15430,"max":[1,1,0.9991833567619324],"min":[-1,-1,-0.9998898506164551],"type":"VEC3"},{"bufferView":1,"byteOffset":1823808,"componentType":5126,"count":15430,"max":[0.8682685494422913,1.0000001192092896],"min":[0,0],"type":"VEC2"},{"bufferView":0,"byteOffset":1211712,"componentType":5125,"count":77616,"type":"SCALAR"},{"bufferView":2,"byteOffset":1895544,"componentType":5126,"count":124,"max":[0.04671711102128029,0.4452190101146698,0.8738529682159424],"min":[-0.04671711102128029,0.23653288185596466,0.6672298312187195],"type":"VEC3"},{"bufferView":2,"byteOffset":1897032,"componentType":5126,"count":124,"max":[1,1,0.9927557706832886],"min":[-1,-1,-0.9919543266296387],"type":"VEC3"},{"bufferView":1,"byteOffset":1947248,"componentType":5126,"count":124,"max":[1,0.9999999403953552],"min":[0,0],"type":"VEC2"},{"bufferView":0,"byteOffset":1522176,"componentType":5125,"count":360,"type":"SCALAR"},{"bufferView":2,"byteOffset":1898520,"componentType":5126,"count":87,"max":[0.16065621376037598,0.490123450756073,1.1208546161651611],"min":[-0.16065621376037598,0.22490984201431274,-0.10514282435178757],"type":"VEC3"},{"bufferView":2,"byteOffset":1899564,"componentType":5126,"count":87,"max":[0.9977977871894836,0.9996438026428223,1],"min":[-0.9977977871894836,-0.3080590069293976,-0.9885590076446533],"type":"VEC3"},{"bufferView":1,"byteOffset":1948240,"componentType":5126,"count":87,"max":[1,0.9999998807907104],"min":[0,0],"type":"VEC2"},{"bufferView":0,"byteOffset":1523616,"componentType":5125,"count":300,"type":"SCALAR"},{"bufferView":2,"byteOffset":1900608,"componentType":5126,"count":126,"max":[0.13733859360218048,0.3364405035972595,0.29928237199783325],"min":[-0.13733859360218048,0.27131521701812744,0.11515390127897263],"type":"VEC3"},{"bufferView":2,"byteOffset":1902120,"componentType":5126,"count":126,"max":[1,0.9966816902160645,0.99748295545578],"min":[-1,-1,-1],"type":"VEC3"},{"bufferView":1,"byteOffset":1948936,"componentType":5126,"count":126,"max":[0.7750353813171387,0.7757056951522827],"min":[0,0],"type":"VEC2"},{"bufferView":0,"byteOffset":1524816,"componentType":5125,"count":456,"type":"SCALAR"},{"bufferView":2,"byteOffset":1903632,"componentType":5126,"count":2892,"max":[0.1333581507205963,0.5147759914398193,0.13822725415229797],"min":[-0.13266627490520477,0.32481804490089417,0.08093693107366562],"type":"VEC3"},{"bufferView":2,"byteOffset":1938336,"componentType":5126,"count":2892,"max":[1,0.999396562576294,0.9979594349861145],"min":[-1,-0.9999065399169922,-0.9999949932098389],"type":"VEC3"},{"bufferView":1,"byteOffset":1949944,"componentType":5126,"count":2892,"max":[0.9984462261199951,0.9764728546142578],"min":[0.3517499566078186,0],"type":"VEC2"},{"bufferView":0,"byteOffset":1526640,"componentType":5125,"count":14592,"type":"SCALAR"},{"bufferView":2,"byteOffset":1973040,"componentType":5126,"count":240,"max":[0.16413526237010956,0.0019497069297358394,0.006956500466912985],"min":[-0.018975989893078804,-0.013664711266756058,0.0007803961052559316],"type":"VEC3"},{"bufferView":2,"byteOffset":1975920,"componentType":5126,"count":240,"max":[1,0.13183413445949554,0.9912720322608948],"min":[-1,-0.13183411955833435,-0.99127197265625],"type":"VEC3"},{"bufferView":1,"byteOffset":1973080,"componentType":5126,"count":240,"max":[1,1],"min":[0,0],"type":"VEC2"},{"bufferView":0,"byteOffset":1585008,"componentType":5125,"count":768,"type":"SCALAR"},{"bufferView":2,"byteOffset":1978800,"componentType":5126,"count":192,"max":[0.16362342238426208,0.4124419391155243,0.28848016262054443],"min":[-0.16362342238426208,0.39743614196777344,0.15798430144786835],"type":"VEC3"},{"bufferView":2,"byteOffset":1981104,"componentType":5126,"count":192,"max":[0.9881073832511902,0.9843918085098267,0.9835802316665649],"min":[-0.9881076812744141,-0.9687014222145081,-0.9663428664207458],"type":"VEC3"},{"bufferView":1,"byteOffset":1975000,"componentType":5126,"count":192,"max":[0.7866454720497131,0.9982520937919617],"min":[0.2909409999847412,0.253799706697464],"type":"VEC2"},{"bufferView":0,"byteOffset":1588080,"componentType":5125,"count":648,"type":"SCALAR"},{"bufferView":2,"byteOffset":1983408,"componentType":5126,"count":192,"max":[0.16373373568058014,0.4074074625968933,0.2889005243778229],"min":[-0.16373373568058014,0.3673224151134491,0.15758337080478668],"type":"VEC3"},{"bufferView":2,"byteOffset":1985712,"componentType":5126,"count":192,"max":[0.9739029407501221,0.9812561869621277,0.9811713695526123],"min":[-0.973902702331543,-0.9840562343597412,-0.9761958718299866],"type":"VEC3"},{"bufferView":1,"byteOffset":1976536,"componentType":5126,"count":192,"max":[1,0.9999999403953552],"min":[0,0],"type":"VEC2"},{"bufferView":0,"byteOffset":1590672,"componentType":5125,"count":648,"type":"SCALAR"},{"bufferView":2,"byteOffset":1988016,"componentType":5126,"count":72,"max":[0.9343301057815552,0.6112321019172668,0.39362505078315735],"min":[-0.9343301057815552,0.09447015076875687,0.35966756939888],"type":"VEC3"},{"bufferView":2,"byteOffset":1988880,"componentType":5126,"count":72,"max":[0.020731894299387932,0.14637361466884613,0.9999966025352478],"min":[-0.02073202095925808,-0.02144414745271206,0.989029586315155],"type":"VEC3"},{"bufferView":1,"byteOffset":1978072,"componentType":5126,"count":72,"max":[0.7165838479995728,0.8246335983276367],"min":[0.5747959017753601,0.133992537856102],"type":"VEC2"},{"bufferView":0,"byteOffset":1593264,"componentType":5125,"count":300,"type":"SCALAR"},{"bufferView":2,"byteOffset":1989744,"componentType":5126,"count":4972,"max":[0.8803180456161499,0.6422937512397766,0.370665967464447],"min":[-0.8803180456161499,0.6069856882095337,0.3585446774959564],"type":"VEC3"},{"bufferView":2,"byteOffset":2049408,"componentType":5126,"count":4972,"max":[0.9997043013572693,0.999703049659729,1],"min":[-0.9997042417526245,-0.9997108578681946,-1],"type":"VEC3"},{"bufferView":1,"byteOffset":1978648,"componentType":5126,"count":4972,"max":[1,0.9999999403953552],"min":[0,0],"type":"VEC2"},{"bufferView":0,"byteOffset":1594464,"componentType":5125,"count":24168,"type":"SCALAR"},{"bufferView":2,"byteOffset":2109072,"componentType":5126,"count":224,"max":[0.011623185127973557,0.30856356024742126,1.174343466758728],"min":[-0.011551003903150558,0.09462197870016098,1.1704363822937012],"type":"VEC3"},{"bufferView":2,"byteOffset":2111760,"componentType":5126,"count":224,"max":[0.9995886087417603,0.9999998807907104,0.9999995231628418],"min":[-0.999586284160614,-0.9999998807907104,-0.999809980392456],"type":"VEC3"},{"bufferView":1,"byteOffset":2018424,"componentType":5126,"count":224,"max":[0.7167866230010986,0.8390074968338013],"min":[0.5733022689819336,0.0896790623664856],"type":"VEC2"},{"bufferView":0,"byteOffset":1691136,"componentType":5125,"count":1143,"type":"SCALAR"},{"bufferView":2,"byteOffset":2114448,"componentType":5126,"count":190,"max":[0.6374494433403015,0.6369695067405701,0.5292466282844543],"min":[-0.6374494433403015,0.34227705001831055,0.5237675309181213],"type":"VEC3"},{"bufferView":2,"byteOffset":2116728,"componentType":5126,"count":190,"max":[0.0971163734793663,0.043951865285634995,0.9999995231628418],"min":[-0.0971163734793663,-0.016175847500562668,0.9947453141212463],"type":"VEC3"},{"bufferView":1,"byteOffset":2020216,"componentType":5126,"count":190,"max":[0.7166325449943542,0.8358562588691711],"min":[0.5742603540420532,0.094089575111866],"type":"VEC2"},{"bufferView":0,"byteOffset":1695708,"componentType":5125,"count":720,"type":"SCALAR"},{"bufferView":2,"byteOffset":2119008,"componentType":5126,"count":436,"max":[0.6260828971862793,0.6348900198936462,0.5269823670387268],"min":[-0.6260828971862793,0.6250343918800354,0.5254194140434265],"type":"VEC3"},{"bufferView":2,"byteOffset":2124240,"componentType":5126,"count":436,"max":[0.9995894432067871,0.9999998807907104,0.9997340440750122],"min":[-0.9995889663696289,-0.9999999403953552,-0.9998090267181396],"type":"VEC3"},{"bufferView":1,"byteOffset":2021736,"componentType":5126,"count":436,"max":[1,0.16275548934936523],"min":[0.8999858498573303,0],"type":"VEC2"},{"bufferView":0,"byteOffset":1698588,"componentType":5125,"count":1536,"type":"SCALAR"},{"bufferView":2,"byteOffset":2129472,"componentType":5126,"count":80,"max":[0.17359137535095215,0.5424350500106812,0.8491241931915283],"min":[-0.17359137535095215,0.26765596866607666,0.7600869536399841],"type":"VEC3"},{"bufferView":2,"byteOffset":2130432,"componentType":5126,"count":80,"max":[0,2.132730827497653e-7,-0.3127058446407318],"min":[0,-0.9498500823974609,-1],"type":"VEC3"},{"bufferView":1,"byteOffset":2025224,"componentType":5126,"count":80,"max":[1,1],"min":[0,0],"type":"VEC2"},{"bufferView":0,"byteOffset":1704732,"componentType":5125,"count":240,"type":"SCALAR"},{"bufferView":2,"byteOffset":2131392,"componentType":5126,"count":3314,"max":[-0.004856929183006287,0.02920626290142536,0.0024327714927494526],"min":[-0.2122676968574524,-0.030307598412036896,-0.00368312350474298],"type":"VEC3"},{"bufferView":2,"byteOffset":2171160,"componentType":5126,"count":3314,"max":[1,1,1],"min":[-1,-1,-1],"type":"VEC3"},{"bufferView":1,"byteOffset":2025864,"componentType":5126,"count":3314,"max":[1,1],"min":[0,0],"type":"VEC2"},{"bufferView":0,"byteOffset":1705692,"componentType":5125,"count":13488,"type":"SCALAR"},{"bufferView":2,"byteOffset":2210928,"componentType":5126,"count":688,"max":[-0.10452218353748322,0.026104995980858803,-0.0005978082772344351],"min":[-0.11260245740413666,0.012638685293495655,-0.0013687212485820055],"type":"VEC3"},{"bufferView":2,"byteOffset":2219184,"componentType":5126,"count":688,"max":[0.9672947525978088,0.9672988653182983,0.967297375202179],"min":[-0.9673092365264893,-0.9672996997833252,-0.9672971963882446],"type":"VEC3"},{"bufferView":3,"byteOffset":886992,"componentType":5126,"count":688,"max":[0.6701341271400452,0.983543872833252,0.98735111951828,1],"min":[-0.9866343140602112,-0.9835506677627563,-0.9873510003089905,-1],"type":"VEC4"},{"bufferView":1,"byteOffset":2052376,"componentType":5126,"count":688,"max":[0.8867676854133606,0.8911679983139038],"min":[0.15131418406963348,0.047451626509428024],"type":"VEC2"},{"bufferView":1,"byteOffset":2057880,"componentType":5126,"count":688,"max":[0.8867676854133606,0.8911679983139038],"min":[0.15131418406963348,0.047451626509428024],"type":"VEC2"},{"bufferView":0,"byteOffset":1759644,"componentType":5125,"count":2592,"type":"SCALAR"},{"bufferView":2,"byteOffset":2227440,"componentType":5126,"count":628,"max":[-0.10452218353748322,0.00886718463152647,-0.0005978082772344351],"min":[-0.11260245740413666,-0.004599126521497965,-0.0013687212485820055],"type":"VEC3"},{"bufferView":2,"byteOffset":2234976,"componentType":5126,"count":628,"max":[0.9672950506210327,0.9672972559928894,0.9672980904579163],"min":[-0.9673117399215698,-0.9672967791557312,-0.9672986268997192],"type":"VEC3"},{"bufferView":3,"byteOffset":898000,"componentType":5126,"count":628,"max":[0.6705731749534607,0.9835630059242249,0.9873518347740173,1],"min":[-0.9833639860153198,-0.9835697412490845,-0.9873532056808472,-1],"type":"VEC4"},{"bufferView":1,"byteOffset":2063384,"componentType":5126,"count":628,"max":[0.8920302391052246,0.9602550864219666],"min":[0.1181100606918335,0.03340559080243111],"type":"VEC2"},{"bufferView":1,"byteOffset":2068408,"componentType":5126,"count":628,"max":[0.8920302391052246,0.9602550864219666],"min":[0.1181100606918335,0.03340559080243111],"type":"VEC2"},{"bufferView":0,"byteOffset":1770012,"componentType":5125,"count":2592,"type":"SCALAR"},{"bufferView":2,"byteOffset":2242512,"componentType":5126,"count":424,"max":[-0.10452218353748322,-0.008299368433654308,-0.0005978082772344351],"min":[-0.11260245740413666,-0.02105817385017872,-0.0013687212485820055],"type":"VEC3"},{"bufferView":2,"byteOffset":2247600,"componentType":5126,"count":424,"max":[0.9672924280166626,0.9673004746437073,0.9672971963882446],"min":[-0.967308759689331,-0.967296302318573,-0.9672971367835999],"type":"VEC3"},{"bufferView":1,"byteOffset":2073432,"componentType":5126,"count":424,"max":[0.8872368931770325,0.9449379444122314],"min":[0.10632169991731644,0.10443054139614105],"type":"VEC2"},{"bufferView":1,"byteOffset":2076824,"componentType":5126,"count":424,"max":[0.8872368931770325,0.9449379444122314],"min":[0.10632169991731644,0.10443054139614105],"type":"VEC2"},{"bufferView":0,"byteOffset":1780380,"componentType":5125,"count":1620,"type":"SCALAR"},{"bufferView":2,"byteOffset":2252688,"componentType":5126,"count":288,"max":[-0.023195728659629822,-0.024535516276955605,0.0018762967083603144],"min":[-0.19299577176570892,-0.027364134788513184,-0.00020699430024251342],"type":"VEC3"},{"bufferView":2,"byteOffset":2256144,"componentType":5126,"count":288,"max":[1,1,1],"min":[-1,-1,-1],"type":"VEC3"},{"bufferView":1,"byteOffset":2080216,"componentType":5126,"count":288,"max":[1,1],"min":[0,0],"type":"VEC2"},{"bufferView":1,"byteOffset":2082520,"componentType":5126,"count":288,"max":[1,1],"min":[0,0],"type":"VEC2"},{"bufferView":0,"byteOffset":1786860,"componentType":5125,"count":432,"type":"SCALAR"},{"bufferView":2,"byteOffset":2259600,"componentType":5126,"count":8,"max":[-0.018129363656044006,0.028494661673903465,0.0013031531125307083],"min":[-0.19869759678840637,-0.029506124556064606,0.0013031531125307083],"type":"VEC3"},{"bufferView":2,"byteOffset":2259696,"componentType":5126,"count":8,"max":[0,0,-1],"min":[0,0,-1],"type":"VEC3"},{"bufferView":1,"byteOffset":2084824,"componentType":5126,"count":8,"max":[0.7912715077400208,0.8592599034309387],"min":[0.18808652460575104,0.6135194301605225],"type":"VEC2"},{"bufferView":1,"byteOffset":2084888,"componentType":5126,"count":8,"max":[0.7912715077400208,0.8592599034309387],"min":[0.18808652460575104,0.6135194301605225],"type":"VEC2"},{"bufferView":0,"byteOffset":1788588,"componentType":5125,"count":12,"type":"SCALAR"},{"bufferView":2,"byteOffset":2259792,"componentType":5126,"count":696,"max":[0.11054185032844543,0.4736090898513794,0.7258704900741577],"min":[-0.11054185032844543,0.4163435995578766,0.7103551626205444],"type":"VEC3"},{"bufferView":2,"byteOffset":2268144,"componentType":5126,"count":696,"max":[0.9999110102653503,0.9969257712364197,1],"min":[-0.9999110102653503,-1,-1],"type":"VEC3"},{"bufferView":1,"byteOffset":2084952,"componentType":5126,"count":696,"max":[1,1],"min":[0,0],"type":"VEC2"},{"bufferView":1,"byteOffset":2090520,"componentType":5126,"count":696,"max":[1,1],"min":[0,0],"type":"VEC2"},{"bufferView":0,"byteOffset":1788636,"componentType":5125,"count":2040,"type":"SCALAR"},{"bufferView":2,"byteOffset":2276496,"componentType":5126,"count":180,"max":[-0.057050030678510666,0.4421236515045166,0.7600870132446289],"min":[-0.0700245052576065,0.4289490580558777,0.7240741848945618],"type":"VEC3"},{"bufferView":2,"byteOffset":2278656,"componentType":5126,"count":180,"max":[0.9848095774650574,1,0],"min":[-0.9848076701164246,-1,-1],"type":"VEC3"},{"bufferView":1,"byteOffset":2096088,"componentType":5126,"count":180,"max":[0,0],"min":[0,0],"type":"VEC2"},{"bufferView":0,"byteOffset":1796796,"componentType":5125,"count":540,"type":"SCALAR"},{"bufferView":2,"byteOffset":2280816,"componentType":5126,"count":180,"max":[0.006487235426902771,0.006587296724319458,0.008953988552093506],"min":[-0.0064872391521930695,-0.006587296724319458,-0.027058839797973633],"type":"VEC3"},{"bufferView":2,"byteOffset":2282976,"componentType":5126,"count":180,"max":[0.9848076105117798,1,0],"min":[-0.984808623790741,-1,-1],"type":"VEC3"},{"bufferView":1,"byteOffset":2097528,"componentType":5126,"count":180,"max":[0,0],"min":[0,0],"type":"VEC2"},{"bufferView":0,"byteOffset":1798956,"componentType":5125,"count":540,"type":"SCALAR"},{"bufferView":2,"byteOffset":2285136,"componentType":5126,"count":3748,"max":[0.1264757364988327,0.3603821396827698,0.5954389572143555],"min":[-0.1264757364988327,0.29707950353622437,0.42640554904937744],"type":"VEC3"},{"bufferView":2,"byteOffset":2330112,"componentType":5126,"count":3748,"max":[1,0.9994776248931885,0.9999999403953552],"min":[-1,-0.9999998807907104,-1],"type":"VEC3"},{"bufferView":1,"byteOffset":2098968,"componentType":5126,"count":3748,"max":[1.0000001192092896,1.0000001192092896],"min":[0.08870339393615723,0],"type":"VEC2"},{"bufferView":0,"byteOffset":1801116,"componentType":5125,"count":18048,"type":"SCALAR"},{"bufferView":2,"byteOffset":2375088,"componentType":5126,"count":4886,"max":[0.12539689242839813,0.5203400254249573,0.4547674357891083],"min":[-0.12539689242839813,0.33677753806114197,0.39579975605010986],"type":"VEC3"},{"bufferView":2,"byteOffset":2433720,"componentType":5126,"count":4886,"max":[1,0.9993987083435059,0.9995697736740112],"min":[-1,-0.9997652769088745,-0.9993463158607483],"type":"VEC3"},{"bufferView":1,"byteOffset":2128952,"componentType":5126,"count":4886,"max":[0.8928009271621704,0.9917139410972595],"min":[0,0],"type":"VEC2"},{"bufferView":0,"byteOffset":1873308,"componentType":5125,"count":20832,"type":"SCALAR"},{"bufferView":2,"byteOffset":2492352,"componentType":5126,"count":908,"max":[0.09904319047927856,0.573554277420044,0.4269055724143982],"min":[-0.09904319047927856,0.5204448699951172,0.3921889662742615],"type":"VEC3"},{"bufferView":2,"byteOffset":2503248,"componentType":5126,"count":908,"max":[1,0.9988868236541748,0.9995551109313965],"min":[-1,-0.999380350112915,-0.9999845623970032],"type":"VEC3"},{"bufferView":1,"byteOffset":2168040,"componentType":5126,"count":908,"max":[0.9156763553619385,0.9839036464691162],"min":[0.15801508724689484,0.24129772186279297],"type":"VEC2"},{"bufferView":0,"byteOffset":1956636,"componentType":5125,"count":4224,"type":"SCALAR"},{"bufferView":2,"byteOffset":2514144,"componentType":5126,"count":768,"max":[0.0990677997469902,0.31054121255874634,0.5753348469734192],"min":[-0.0990677997469902,0.2577977478504181,0.4375687539577484],"type":"VEC3"},{"bufferView":2,"byteOffset":2523360,"componentType":5126,"count":768,"max":[1,0.9999351501464844,0.9999972581863403],"min":[-1,-0.9999351501464844,-0.9999972581863403],"type":"VEC3"},{"bufferView":1,"byteOffset":2175304,"componentType":5126,"count":768,"max":[1,1],"min":[0,0],"type":"VEC2"},{"bufferView":0,"byteOffset":1973532,"componentType":5125,"count":1968,"type":"SCALAR"},{"bufferView":2,"byteOffset":2532576,"componentType":5126,"count":1512,"max":[0.04919867590069771,0.45116159319877625,0.7602051496505737],"min":[-0.05067740008234978,0.42188942432403564,0.7585055828094482],"type":"VEC3"},{"bufferView":2,"byteOffset":2550720,"componentType":5126,"count":1512,"max":[1,1,0.00017986600869335234],"min":[-1,-1,-1],"type":"VEC3"},{"bufferView":1,"byteOffset":2181448,"componentType":5126,"count":1512,"max":[0,0],"min":[0,0],"type":"VEC2"},{"bufferView":0,"byteOffset":1981404,"componentType":5125,"count":6480,"type":"SCALAR"},{"bufferView":2,"byteOffset":2568864,"componentType":5126,"count":111,"max":[0.047020986676216125,0.4489838182926178,0.7589522004127502],"min":[-0.0484997034072876,0.4240671992301941,0.7589521408081055],"type":"VEC3"},{"bufferView":2,"byteOffset":2570196,"componentType":5126,"count":111,"max":[0.23912891745567322,0.23911848664283752,-0.970976710319519],"min":[-0.23910245299339294,-0.23910212516784668,-1],"type":"VEC3"},{"bufferView":1,"byteOffset":2193544,"componentType":5126,"count":111,"max":[0.4037700593471527,0.834446132183075],"min":[0.19144126772880554,0.7483956813812256],"type":"VEC2"},{"bufferView":1,"byteOffset":2194432,"componentType":5126,"count":111,"max":[0.4037700593471527,0.834446132183075],"min":[0.19144126772880554,0.7483956813812256],"type":"VEC2"},{"bufferView":0,"byteOffset":2007324,"componentType":5125,"count":324,"type":"SCALAR"},{"bufferView":2,"byteOffset":2571528,"componentType":5126,"count":1044,"max":[-0.020407117903232574,-0.018666664138436317,0.0016709206392988563],"min":[-0.04937165230512619,-0.029956670477986336,-0.03628281131386757],"type":"VEC3"},{"bufferView":2,"byteOffset":2584056,"componentType":5126,"count":1044,"max":[0.9848084449768066,1,1],"min":[-0.9848080277442932,-1,-1],"type":"VEC3"},{"bufferView":1,"byteOffset":2195320,"componentType":5126,"count":1044,"max":[0,0],"min":[0,0],"type":"VEC2"},{"bufferView":0,"byteOffset":2008620,"componentType":5125,"count":3120,"type":"SCALAR"},{"bufferView":2,"byteOffset":2596584,"componentType":5126,"count":6580,"max":[0.02043214812874794,0.12090466171503067,1.0609633922576904],"min":[-0.02043214812874794,0.0032938115764409304,0.9433525800704956],"type":"VEC3"},{"bufferView":2,"byteOffset":2675544,"componentType":5126,"count":6580,"max":[0.9995788931846619,1,1],"min":[-0.9995788931846619,-1,-1],"type":"VEC3"},{"bufferView":3,"byteOffset":908048,"componentType":5126,"count":6580,"max":[1,0.9997408986091614,0.9963959455490112,1],"min":[-1,-0.9997313022613525,-0.9997422695159912,-1],"type":"VEC4"},{"bufferView":1,"byteOffset":2203672,"componentType":5126,"count":6580,"max":[1.0000001192092896,1],"min":[0,0],"type":"VEC2"},{"bufferView":1,"byteOffset":2256312,"componentType":5126,"count":6580,"max":[1.0000001192092896,1],"min":[0,0],"type":"VEC2"},{"bufferView":1,"byteOffset":2308952,"componentType":5126,"count":6580,"max":[1.0000001192092896,1],"min":[0,0],"type":"VEC2"},{"bufferView":1,"byteOffset":2361592,"componentType":5126,"count":6580,"max":[1.0000001192092896,1],"min":[0,0],"type":"VEC2"},{"bufferView":0,"byteOffset":2021100,"componentType":5125,"count":28800,"type":"SCALAR"},{"bufferView":2,"byteOffset":2754504,"componentType":5126,"count":146,"max":[0.017515216022729874,0.10228216648101807,1.0423409938812256],"min":[-0.017515216022729874,0.02191631682217121,0.9619751572608948],"type":"VEC3"},{"bufferView":2,"byteOffset":2756256,"componentType":5126,"count":146,"max":[1,0.7214296460151672,0.7214078903198242],"min":[-1,-0.7214261293411255,-0.7214853763580322],"type":"VEC3"},{"bufferView":1,"byteOffset":2414232,"componentType":5126,"count":146,"max":[0.8683373928070068,0.9455482959747314],"min":[0.514991819858551,0.7686504125595093],"type":"VEC2"},{"bufferView":0,"byteOffset":2136300,"componentType":5125,"count":576,"type":"SCALAR"},{"bufferView":2,"byteOffset":2758008,"componentType":5126,"count":1075,"max":[0.8883422017097473,0.6668448448181152,0.7270392179489136],"min":[0.13621412217617035,0.21130195260047913,0.552100419998169],"type":"VEC3"},{"bufferView":2,"byteOffset":2770908,"componentType":5126,"count":1075,"max":[0.9933590292930603,0.9013776779174805,0.9992934465408325],"min":[-0.9886541366577148,-0.9073117971420288,-0.9975353479385376],"type":"VEC3"},{"bufferView":3,"byteOffset":1013328,"componentType":5126,"count":1075,"max":[0.9071962833404541,0.9983419179916382,0.9990062117576599,1],"min":[-0.9950694441795349,-0.9982122182846069,-0.9857523441314697,1],"type":"VEC4"},{"bufferView":1,"byteOffset":2415400,"componentType":5126,"count":1075,"max":[0.9931236505508423,0.9049686789512634],"min":[0.02368006855249405,0],"type":"VEC2"},{"bufferView":1,"byteOffset":2424000,"componentType":5126,"count":1075,"max":[0.9931236505508423,0.9049686789512634],"min":[0.02368006855249405,0],"type":"VEC2"},{"bufferView":1,"byteOffset":2432600,"componentType":5126,"count":1075,"max":[0.9931236505508423,0.9049686789512634],"min":[0.02368006855249405,0],"type":"VEC2"},{"bufferView":1,"byteOffset":2441200,"componentType":5126,"count":1075,"max":[0.9931236505508423,0.9049686789512634],"min":[0.02368006855249405,0],"type":"VEC2"},{"bufferView":0,"byteOffset":2138604,"componentType":5125,"count":3888,"type":"SCALAR"},{"bufferView":2,"byteOffset":2783808,"componentType":5126,"count":1350,"max":[0.9372839331626892,0.09819195419549942,0.40337464213371277],"min":[-0.9372839331626892,0.04893261566758156,0.38524067401885986],"type":"VEC3"},{"bufferView":2,"byteOffset":2800008,"componentType":5126,"count":1350,"max":[1,1,1],"min":[-1,-1,-1],"type":"VEC3"},{"bufferView":1,"byteOffset":2449800,"componentType":5126,"count":1350,"max":[1,1],"min":[0,0],"type":"VEC2"},{"bufferView":0,"byteOffset":2154156,"componentType":5125,"count":5388,"type":"SCALAR"},{"bufferView":2,"byteOffset":2816208,"componentType":5126,"count":108,"max":[0.9780502915382385,0.048932626843452454,0.44540688395500183],"min":[-0.9780502915382385,0.0036129034124314785,0.34320852160453796],"type":"VEC3"},{"bufferView":2,"byteOffset":2817504,"componentType":5126,"count":108,"max":[1,1,1],"min":[-1,-1,-1],"type":"VEC3"},{"bufferView":1,"byteOffset":2460600,"componentType":5126,"count":108,"max":[1.0000001192092896,1.0000001192092896],"min":[0,0],"type":"VEC2"},{"bufferView":0,"byteOffset":2175708,"componentType":5125,"count":288,"type":"SCALAR"},{"bufferView":2,"byteOffset":2818800,"componentType":5126,"count":60,"max":[0.010304692201316357,0.19891484081745148,0.9782769083976746],"min":[-0.010304692201316357,0.137922003865242,0.9377439618110657],"type":"VEC3"},{"bufferView":2,"byteOffset":2819520,"componentType":5126,"count":60,"max":[1,0.32621103525161743,0.945297122001648],"min":[-1,-0.3262133300304413,-0.9452979564666748],"type":"VEC3"},{"bufferView":1,"byteOffset":2461464,"componentType":5126,"count":60,"max":[1.0000001192092896,1.0000001192092896],"min":[0,0],"type":"VEC2"},{"bufferView":0,"byteOffset":2176860,"componentType":5125,"count":192,"type":"SCALAR"},{"bufferView":2,"byteOffset":2820240,"componentType":5126,"count":500,"max":[0.018059970811009407,0.2582740783691406,0.020027242600917816],"min":[-0.003125896444544196,-0.10994366556406021,-0.31696516275405884],"type":"VEC3"},{"bufferView":2,"byteOffset":2826240,"componentType":5126,"count":500,"max":[-0.94040447473526,-0.00023409245477523655,0.00227216724306345],"min":[-1,-0.3399507403373718,-0.013848548755049706],"type":"VEC3"},{"bufferView":3,"byteOffset":1030528,"componentType":5126,"count":500,"max":[0.0412970706820488,0.9090355634689331,-0.16750264167785645,-1],"min":[-0.009463422000408173,-0.9858715534210205,-0.9999995231628418,-1],"type":"VEC4"},{"bufferView":1,"byteOffset":2461944,"componentType":5126,"count":500,"max":[0.6980119347572327,0.8316446542739868],"min":[0.569088339805603,0.6834139823913574],"type":"VEC2"},{"bufferView":1,"byteOffset":2465944,"componentType":5126,"count":500,"max":[0.6980119347572327,0.8316446542739868],"min":[0.569088339805603,0.6834139823913574],"type":"VEC2"},{"bufferView":1,"byteOffset":2469944,"componentType":5126,"count":500,"max":[0.6980119347572327,0.8316446542739868],"min":[0.569088339805603,0.6834139823913574],"type":"VEC2"},{"bufferView":1,"byteOffset":2473944,"componentType":5126,"count":500,"max":[0.6980119347572327,0.8316446542739868],"min":[0.569088339805603,0.6834139823913574],"type":"VEC2"},{"bufferView":0,"byteOffset":2177628,"componentType":5125,"count":2640,"type":"SCALAR"},{"bufferView":2,"byteOffset":2832240,"componentType":5126,"count":1888,"max":[0.0317603275179863,0.11460928618907928,-0.22668665647506714],"min":[-0.01634805090725422,0.05412683263421059,-0.2984309196472168],"type":"VEC3"},{"bufferView":2,"byteOffset":2854896,"componentType":5126,"count":1888,"max":[0.9999982118606567,1,1],"min":[-0.9999982118606567,-1,-1],"type":"VEC3"},{"bufferView":1,"byteOffset":2477944,"componentType":5126,"count":1888,"max":[1.0000001192092896,0.9861743450164795],"min":[0,0],"type":"VEC2"},{"bufferView":0,"byteOffset":2188188,"componentType":5125,"count":8448,"type":"SCALAR"},{"bufferView":2,"byteOffset":2877552,"componentType":5126,"count":1242,"max":[0.03932856395840645,0.25828561186790466,0.02011379785835743],"min":[-0.0006894371472299099,-0.10994366556406021,-0.3169794976711273],"type":"VEC3"},{"bufferView":2,"byteOffset":2892456,"componentType":5126,"count":1242,"max":[1,0.9999934434890747,0.9999354481697083],"min":[-1,-0.9997521638870239,-0.9996035695075989],"type":"VEC3"},{"bufferView":1,"byteOffset":2493048,"componentType":5126,"count":1242,"max":[1.0000001192092896,0.16962802410125732],"min":[0.7141189575195312,0],"type":"VEC2"},{"bufferView":0,"byteOffset":2221980,"componentType":5125,"count":6000,"type":"SCALAR"},{"bufferView":2,"byteOffset":2907360,"componentType":5126,"count":244,"max":[0.008060669526457787,0.24115918576717377,-0.04546301066875458],"min":[-0.002049625152722001,0.12634725868701935,-0.29972705245018005],"type":"VEC3"},{"bufferView":2,"byteOffset":2910288,"componentType":5126,"count":244,"max":[1,0.9997614622116089,0.991278886795044],"min":[-1,-0.9999933242797852,-0.9997318983078003],"type":"VEC3"},{"bufferView":3,"byteOffset":1038528,"componentType":5126,"count":244,"max":[1,0.9999993443489075,0.9969286322593689,1],"min":[-0.001591491629369557,-0.9755178093910217,-0.9999659061431885,-1],"type":"VEC4"},{"bufferView":1,"byteOffset":2502984,"componentType":5126,"count":244,"max":[0.3284738063812256,1.0000001192092896],"min":[0.1647370159626007,0.5799559354782104],"type":"VEC2"},{"bufferView":1,"byteOffset":2504936,"componentType":5126,"count":244,"max":[0.3284738063812256,1.0000001192092896],"min":[0.1647370159626007,0.5799559354782104],"type":"VEC2"},{"bufferView":1,"byteOffset":2506888,"componentType":5126,"count":244,"max":[0.3284738063812256,1.0000001192092896],"min":[0.1647370159626007,0.5799559354782104],"type":"VEC2"},{"bufferView":1,"byteOffset":2508840,"componentType":5126,"count":244,"max":[0.3284738063812256,1.0000001192092896],"min":[0.1647370159626007,0.5799559354782104],"type":"VEC2"},{"bufferView":0,"byteOffset":2245980,"componentType":5125,"count":864,"type":"SCALAR"},{"bufferView":4,"componentType":5126,"count":104,"max":[10.416666984558105],"min":[0.0416666679084301],"type":"SCALAR"},{"bufferView":5,"componentType":5126,"count":104,"max":[0,0,0,1],"min":[0,-0.5075384974479675,0,0.861629068851471],"type":"VEC4"},{"bufferView":4,"byteOffset":416,"componentType":5126,"count":104,"max":[10.416666984558105],"min":[0.0416666679084301],"type":"SCALAR"},{"bufferView":5,"byteOffset":1664,"componentType":5126,"count":104,"max":[0,0.5075384974479675,0,1],"min":[0,0,0,0.861629068851471],"type":"VEC4"}],"animations":[{"channels":[{"sampler":0,"target":{"node":31,"path":"rotation"}},{"sampler":1,"target":{"node":119,"path":"rotation"}}],"name":"Animation","samplers":[{"input":388,"interpolation":"LINEAR","output":389},{"input":390,"interpolation":"LINEAR","output":391}]}],"asset":{"extras":{"author":"NLM (https://sketchfab.com/NLM-Group)","license":"CC-BY-4.0 (http://creativecommons.org/licenses/by/4.0/)","source":"https://sketchfab.com/3d-models/free-cessna-172sp-c9cadc2f026946da8cf9715a683739e9","title":"FREE Cessna 172SP"},"generator":"Sketchfab-16.65.0","version":"2.0"},"bufferViews":[{"buffer":0,"byteLength":2249436,"name":"floatBufferViews","target":34963},{"buffer":0,"byteLength":2510792,"byteOffset":2249436,"byteStride":8,"name":"floatBufferViews","target":34962},{"buffer":0,"byteLength":2913216,"byteOffset":4760228,"byteStride":12,"name":"floatBufferViews","target":34962},{"buffer":0,"byteLength":1042432,"byteOffset":7673444,"byteStride":16,"name":"floatBufferViews","target":34962},{"buffer":0,"byteLength":832,"byteOffset":8715876,"name":"floatBufferViews"},{"buffer":0,"byteLength":3328,"byteOffset":8716708,"byteStride":16,"name":"floatBufferViews"}],"buffers":[{"byteLength":8720036,"uri":"scene.bin"}],"extensionsUsed":["KHR_materials_specular","KHR_materials_emissive_strength"],"images":[{"uri":"Body_baseColor.png"},{"uri":"Body_metallicRoughness.png"},{"uri":"Body_normal.png"},{"uri":"Tyre_baseColor.png"},{"uri":"Tyre_metallicRoughness.png"},{"uri":"Tyre_normal.png"},{"uri":"Metal_baseColor.png"},{"uri":"Metal_metallicRoughness.png"},{"uri":"Window_baseColor.png"},{"uri":"Window_metallicRoughness.png"},{"uri":"Window_normal.png"},{"uri":"Screw_metallicRoughness.png"},{"uri":"Screw_normal.png"},{"uri":"Front_baseColor.png"},{"uri":"Front_metallicRoughness.png"},{"uri":"Front_normal.png"},{"uri":"Material.004_baseColor.png"},{"uri":"Material.004_metallicRoughness.png"},{"uri":"Material.004_normal.png"},{"uri":"remove_before_flight_baseColor.jpeg"},{"uri":"material_baseColor.jpeg"},{"uri":"material_19_baseColor.jpeg"},{"uri":"material_20_baseColor.jpeg"},{"uri":"Material.006_baseColor.jpeg"},{"uri":"Material.007_baseColor.jpeg"},{"uri":"Cockpit_metallicRoughness.png"},{"uri":"Material.009_baseColor.jpeg"},{"uri":"Concrete_baseColor.png"}],"materials":[{"doubleSided":true,"name":"material_0","pbrMetallicRoughness":{"metallicFactor":0,"roughnessFactor":0.6}},{"doubleSided":true,"extensions":{"KHR_materials_specular":{"specularColorFactor":[1,1,1],"specularFactor":0.2971437627238483}},"name":"Body","normalTexture":{"index":2},"pbrMetallicRoughness":{"baseColorTexture":{"index":0},"metallicRoughnessTexture":{"index":1},"roughnessFactor":0.7420974997257134}},{"doubleSided":true,"name":"Material.001","pbrMetallicRoughness":{"baseColorFactor":[0,0,0,1],"metallicFactor":0,"roughnessFactor":0.5}},{"doubleSided":true,"name":"Tyre","normalTexture":{"index":5},"pbrMetallicRoughness":{"baseColorTexture":{"index":3},"metallicRoughnessTexture":{"index":4}}},{"doubleSided":true,"name":"Disk","pbrMetallicRoughness":{"baseColorFactor":[0.8,0.8,0.8,1],"metallicFactor":0.4556204361765674,"roughnessFactor":0}},{"doubleSided":true,"name":"Metal","pbrMetallicRoughness":{"baseColorTexture":{"index":6},"metallicRoughnessTexture":{"index":7},"roughnessFactor":0.1386670892711292}},{"alphaMode":"BLEND","doubleSided":true,"name":"Window","normalTexture":{"index":10},"pbrMetallicRoughness":{"baseColorFactor":[0.14476234594238763,0.14476234594238763,0.14476234594238763,0.3702868427789494],"baseColorTexture":{"index":8},"metallicRoughnessTexture":{"index":9},"roughnessFactor":0}},{"doubleSided":true,"name":"Interior_2","pbrMetallicRoughness":{"baseColorFactor":[0.1002182397306339,0.05918358751254482,0.029692305268059837,1],"metallicFactor":0.32152478940888196,"roughnessFactor":0.5}},{"doubleSided":true,"name":"Screw","normalTexture":{"index":12},"pbrMetallicRoughness":{"baseColorFactor":[0.0694127,0.0694127,0.0694127,1],"metallicRoughnessTexture":{"index":11},"roughnessFactor":0.4739062061903426}},{"doubleSided":true,"name":"Material.002","pbrMetallicRoughness":{"baseColorFactor":[0.8,0.8,0.8,1],"metallicFactor":0.44952517950530896,"roughnessFactor":0.5}},{"doubleSided":true,"name":"Front","normalTexture":{"index":15},"pbrMetallicRoughness":{"baseColorTexture":{"index":13},"metallicRoughnessTexture":{"index":14}}},{"doubleSided":true,"name":"Material.004","normalTexture":{"index":18},"pbrMetallicRoughness":{"baseColorTexture":{"index":16},"metallicRoughnessTexture":{"index":17}}},{"doubleSided":true,"name":"Black","pbrMetallicRoughness":{"baseColorFactor":[0.076413,0.076413,0.076413,1],"metallicFactor":0.895455,"roughnessFactor":0.5}},{"doubleSided":true,"name":"Interior","pbrMetallicRoughness":{"baseColorFactor":[0.5173330000000002,0.221291,0.07844060000000001,1],"metallicFactor":0,"roughnessFactor":0.6384781363143202}},{"doubleSided":true,"name":"Metal.001","pbrMetallicRoughness":{"baseColorFactor":[0.104293,0.104293,0.104293,1],"metallicFactor":0,"roughnessFactor":0.5}},{"doubleSided":true,"name":"remove_before_flight","pbrMetallicRoughness":{"baseColorTexture":{"index":19},"metallicFactor":0.42514415282027523,"roughnessFactor":0.3459058160939157}},{"doubleSided":true,"name":"Material.003","pbrMetallicRoughness":{"baseColorFactor":[0.11807987986249101,0.11807987986249101,0.11807987986249101,1],"roughnessFactor":0.5}},{"doubleSided":true,"name":"Material.005","pbrMetallicRoughness":{"baseColorFactor":[0.0508635,0.0508635,0.0508635,1],"metallicFactor":0.177273,"roughnessFactor":0.5}},{"doubleSided":true,"emissiveFactor":[1,1,1],"emissiveTexture":{"index":20},"extensions":{"KHR_materials_emissive_strength":{"emissiveStrength":3}},"name":"material","normalTexture":{"index":10},"pbrMetallicRoughness":{"baseColorTexture":{"index":20},"metallicRoughnessTexture":{"index":7}}},{"doubleSided":true,"emissiveFactor":[1,1,1],"emissiveTexture":{"index":21},"extensions":{"KHR_materials_emissive_strength":{"emissiveStrength":3}},"name":"material_19","normalTexture":{"index":10},"pbrMetallicRoughness":{"baseColorTexture":{"index":21},"metallicRoughnessTexture":{"index":7}}},{"doubleSided":true,"emissiveFactor":[1,1,1],"emissiveTexture":{"index":22},"extensions":{"KHR_materials_emissive_strength":{"emissiveStrength":3}},"name":"material_20","pbrMetallicRoughness":{"baseColorTexture":{"index":22},"roughnessFactor":0.245}},{"doubleSided":true,"emissiveFactor":[1,1,1],"emissiveTexture":{"index":23},"extensions":{"KHR_materials_emissive_strength":{"emissiveStrength":3}},"name":"Material.006","pbrMetallicRoughness":{"baseColorTexture":{"index":23},"roughnessFactor":0.245}},{"doubleSided":true,"emissiveFactor":[1,1,1],"emissiveTexture":{"index":24},"name":"Material.007","pbrMetallicRoughness":{"baseColorTexture":{"index":24},"roughnessFactor":0.192913}},{"doubleSided":true,"name":"Cockpit","pbrMetallicRoughness":{"baseColorFactor":[0.0196021,0.0196021,0.0196021,1],"metallicFactor":0.177273,"metallicRoughnessTexture":{"index":25}}},{"doubleSided":true,"name":"Chair","pbrMetallicRoughness":{"baseColorFactor":[0,0,0,1],"metallicFactor":0,"roughnessFactor":0.5}},{"doubleSided":true,"emissiveFactor":[1,1,1],"emissiveTexture":{"index":26},"name":"Material.009","pbrMetallicRoughness":{"baseColorTexture":{"index":26},"metallicFactor":0,"roughnessFactor":0.5}},{"doubleSided":true,"name":"Concrete","pbrMetallicRoughness":{"baseColorTexture":{"index":27},"metallicFactor":0.204545,"roughnessFactor":0.513636}},{"doubleSided":true,"name":"Metal.002","pbrMetallicRoughness":{"baseColorFactor":[0.175823,0.175823,0.175823,1],"metallicFactor":0.363636,"roughnessFactor":0.2971437627238483}}],"meshes":[{"name":"Object_0","primitives":[{"attributes":{"NORMAL":1,"POSITION":0,"TANGENT":2,"TEXCOORD_0":3,"TEXCOORD_1":4,"TEXCOORD_2":5,"TEXCOORD_3":6},"indices":7,"material":1,"mode":4}]},{"name":"Object_1","primitives":[{"attributes":{"NORMAL":9,"POSITION":8,"TANGENT":10,"TEXCOORD_0":11,"TEXCOORD_1":12,"TEXCOORD_2":13,"TEXCOORD_3":14},"indices":15,"material":1,"mode":4}]},{"name":"Object_2","primitives":[{"attributes":{"NORMAL":17,"POSITION":16,"TANGENT":18,"TEXCOORD_0":19,"TEXCOORD_1":20,"TEXCOORD_2":21,"TEXCOORD_3":22},"indices":23,"material":1,"mode":4}]},{"name":"Object_3","primitives":[{"attributes":{"NORMAL":25,"POSITION":24,"TANGENT":26,"TEXCOORD_0":27,"TEXCOORD_1":28,"TEXCOORD_2":29,"TEXCOORD_3":30},"indices":31,"material":1,"mode":4}]},{"name":"Object_4","primitives":[{"attributes":{"NORMAL":33,"POSITION":32,"TANGENT":34,"TEXCOORD_0":35,"TEXCOORD_1":36,"TEXCOORD_2":37,"TEXCOORD_3":38},"indices":39,"material":1,"mode":4}]},{"name":"Object_5","primitives":[{"attributes":{"NORMAL":41,"POSITION":40,"TEXCOORD_0":42},"indices":43,"material":2,"mode":4}]},{"name":"Object_6","primitives":[{"attributes":{"NORMAL":45,"POSITION":44,"TANGENT":46,"TEXCOORD_0":47,"TEXCOORD_1":48,"TEXCOORD_2":49,"TEXCOORD_3":50},"indices":51,"material":1,"mode":4}]},{"name":"Object_7","primitives":[{"attributes":{"NORMAL":53,"POSITION":52,"TANGENT":54,"TEXCOORD_0":55,"TEXCOORD_1":56,"TEXCOORD_2":57,"TEXCOORD_3":58},"indices":59,"material":1,"mode":4}]},{"name":"Object_8","primitives":[{"attributes":{"NORMAL":61,"POSITION":60,"TANGENT":62,"TEXCOORD_0":63,"TEXCOORD_1":64,"TEXCOORD_2":65,"TEXCOORD_3":66},"indices":67,"material":3,"mode":4}]},{"name":"Object_9","primitives":[{"attributes":{"NORMAL":69,"POSITION":68,"TEXCOORD_0":70},"indices":71,"material":4,"mode":4}]},{"name":"Object_10","primitives":[{"attributes":{"NORMAL":73,"POSITION":72,"TANGENT":74,"TEXCOORD_0":75,"TEXCOORD_1":76,"TEXCOORD_2":77,"TEXCOORD_3":78},"indices":79,"material":1,"mode":4}]},{"name":"Object_11","primitives":[{"attributes":{"NORMAL":81,"POSITION":80,"TANGENT":82,"TEXCOORD_0":83,"TEXCOORD_1":84,"TEXCOORD_2":85,"TEXCOORD_3":86},"indices":87,"material":1,"mode":4}]},{"name":"Object_12","primitives":[{"attributes":{"NORMAL":89,"POSITION":88,"TANGENT":90,"TEXCOORD_0":91,"TEXCOORD_1":92,"TEXCOORD_2":93,"TEXCOORD_3":94},"indices":95,"material":1,"mode":4}]},{"name":"Object_13","primitives":[{"attributes":{"NORMAL":97,"POSITION":96,"TANGENT":98,"TEXCOORD_0":99,"TEXCOORD_1":100,"TEXCOORD_2":101,"TEXCOORD_3":102},"indices":103,"material":1,"mode":4}]},{"name":"Object_14","primitives":[{"attributes":{"NORMAL":105,"POSITION":104,"TEXCOORD_0":106},"indices":107,"material":5,"mode":4}]},{"name":"Object_15","primitives":[{"attributes":{"NORMAL":109,"POSITION":108,"TANGENT":110,"TEXCOORD_0":111,"TEXCOORD_1":112,"TEXCOORD_2":113,"TEXCOORD_3":114},"indices":115,"material":1,"mode":4}]},{"name":"Object_16","primitives":[{"attributes":{"NORMAL":117,"POSITION":116,"TEXCOORD_0":118},"indices":119,"material":5,"mode":4}]},{"name":"Object_17","primitives":[{"attributes":{"NORMAL":121,"POSITION":120,"TANGENT":122,"TEXCOORD_0":123,"TEXCOORD_1":124,"TEXCOORD_2":125,"TEXCOORD_3":126},"indices":127,"material":6,"mode":4}]},{"name":"Object_18","primitives":[{"attributes":{"NORMAL":129,"POSITION":128,"TEXCOORD_0":130},"indices":131,"material":7,"mode":4}]},{"name":"Object_19","primitives":[{"attributes":{"NORMAL":133,"POSITION":132,"TANGENT":134,"TEXCOORD_0":135,"TEXCOORD_1":136,"TEXCOORD_2":137,"TEXCOORD_3":138},"indices":139,"material":6,"mode":4}]},{"name":"Object_20","primitives":[{"attributes":{"NORMAL":141,"POSITION":140,"TANGENT":142,"TEXCOORD_0":143,"TEXCOORD_1":144,"TEXCOORD_2":145},"indices":146,"material":8,"mode":4}]},{"name":"Object_21","primitives":[{"attributes":{"NORMAL":148,"POSITION":147,"TEXCOORD_0":149},"indices":150,"material":9,"mode":4}]},{"name":"Object_22","primitives":[{"attributes":{"NORMAL":152,"POSITION":151,"TANGENT":153,"TEXCOORD_0":154,"TEXCOORD_1":155,"TEXCOORD_2":156,"TEXCOORD_3":157},"indices":158,"material":1,"mode":4}]},{"name":"Object_23","primitives":[{"attributes":{"NORMAL":160,"POSITION":159,"TANGENT":161,"TEXCOORD_0":162,"TEXCOORD_1":163,"TEXCOORD_2":164,"TEXCOORD_3":165},"indices":166,"material":1,"mode":4}]},{"name":"Object_24","primitives":[{"attributes":{"NORMAL":168,"POSITION":167,"TANGENT":169,"TEXCOORD_0":170,"TEXCOORD_1":171,"TEXCOORD_2":172,"TEXCOORD_3":173},"indices":174,"material":1,"mode":4}]},{"name":"Object_25","primitives":[{"attributes":{"NORMAL":176,"POSITION":175,"TEXCOORD_0":177},"indices":178,"material":5,"mode":4}]},{"name":"Object_26","primitives":[{"attributes":{"NORMAL":180,"POSITION":179,"TANGENT":181,"TEXCOORD_0":182,"TEXCOORD_1":183,"TEXCOORD_2":184,"TEXCOORD_3":185},"indices":186,"material":10,"mode":4}]},{"name":"Object_27","primitives":[{"attributes":{"NORMAL":188,"POSITION":187,"TANGENT":189,"TEXCOORD_0":190,"TEXCOORD_1":191,"TEXCOORD_2":192,"TEXCOORD_3":193},"indices":194,"material":11,"mode":4}]},{"name":"Object_28","primitives":[{"attributes":{"NORMAL":196,"POSITION":195,"TANGENT":197,"TEXCOORD_0":198,"TEXCOORD_1":199,"TEXCOORD_2":200,"TEXCOORD_3":201},"indices":202,"material":1,"mode":4}]},{"name":"Object_29","primitives":[{"attributes":{"NORMAL":204,"POSITION":203,"TEXCOORD_0":205},"indices":206,"material":7,"mode":4}]},{"name":"Object_30","primitives":[{"attributes":{"NORMAL":208,"POSITION":207,"TEXCOORD_0":209},"indices":210,"material":12,"mode":4}]},{"name":"Object_31","primitives":[{"attributes":{"NORMAL":212,"POSITION":211,"TEXCOORD_0":213},"indices":214,"material":7,"mode":4}]},{"name":"Object_32","primitives":[{"attributes":{"NORMAL":216,"POSITION":215,"TEXCOORD_0":217},"indices":218,"material":13,"mode":4}]},{"name":"Object_33","primitives":[{"attributes":{"NORMAL":220,"POSITION":219,"TEXCOORD_0":221},"indices":222,"material":13,"mode":4}]},{"name":"Object_34","primitives":[{"attributes":{"NORMAL":224,"POSITION":223,"TEXCOORD_0":225},"indices":226,"material":14,"mode":4}]},{"name":"Object_35","primitives":[{"attributes":{"NORMAL":228,"POSITION":227,"TEXCOORD_0":229},"indices":230,"material":13,"mode":4}]},{"name":"Object_36","primitives":[{"attributes":{"NORMAL":232,"POSITION":231,"TEXCOORD_0":233},"indices":234,"material":7,"mode":4}]},{"name":"Object_37","primitives":[{"attributes":{"NORMAL":236,"POSITION":235,"TEXCOORD_0":237},"indices":238,"material":15,"mode":4}]},{"name":"Object_38","primitives":[{"attributes":{"NORMAL":240,"POSITION":239,"TEXCOORD_0":241},"indices":242,"material":5,"mode":4}]},{"name":"Object_39","primitives":[{"attributes":{"NORMAL":244,"POSITION":243,"TEXCOORD_0":245},"indices":246,"material":15,"mode":4}]},{"name":"Object_40","primitives":[{"attributes":{"NORMAL":248,"POSITION":247,"TEXCOORD_0":249},"indices":250,"material":15,"mode":4}]},{"name":"Object_41","primitives":[{"attributes":{"NORMAL":252,"POSITION":251,"TEXCOORD_0":253},"indices":254,"material":5,"mode":4}]},{"name":"Object_42","primitives":[{"attributes":{"NORMAL":256,"POSITION":255,"TEXCOORD_0":257},"indices":258,"material":16,"mode":4}]},{"name":"Object_43","primitives":[{"attributes":{"NORMAL":260,"POSITION":259,"TEXCOORD_0":261},"indices":262,"material":17,"mode":4}]},{"name":"Object_44","primitives":[{"attributes":{"NORMAL":264,"POSITION":263,"TANGENT":265,"TEXCOORD_0":266,"TEXCOORD_1":267},"indices":268,"material":18,"mode":4}]},{"name":"Object_45","primitives":[{"attributes":{"NORMAL":270,"POSITION":269,"TANGENT":271,"TEXCOORD_0":272,"TEXCOORD_1":273},"indices":274,"material":19,"mode":4}]},{"name":"Object_46","primitives":[{"attributes":{"NORMAL":276,"POSITION":275,"TEXCOORD_0":277,"TEXCOORD_1":278},"indices":279,"material":20,"mode":4}]},{"name":"Object_47","primitives":[{"attributes":{"NORMAL":281,"POSITION":280,"TEXCOORD_0":282,"TEXCOORD_1":283},"indices":284,"material":21,"mode":4}]},{"name":"Object_48","primitives":[{"attributes":{"NORMAL":286,"POSITION":285,"TEXCOORD_0":287,"TEXCOORD_1":288},"indices":289,"material":22,"mode":4}]},{"name":"Object_49","primitives":[{"attributes":{"NORMAL":291,"POSITION":290,"TEXCOORD_0":292,"TEXCOORD_1":293},"indices":294,"material":23,"mode":4}]},{"name":"Object_50","primitives":[{"attributes":{"NORMAL":296,"POSITION":295,"TEXCOORD_0":297},"indices":298,"material":0,"mode":4}]},{"name":"Object_51","primitives":[{"attributes":{"NORMAL":300,"POSITION":299,"TEXCOORD_0":301},"indices":302,"material":0,"mode":4}]},{"name":"Object_52","primitives":[{"attributes":{"NORMAL":304,"POSITION":303,"TEXCOORD_0":305},"indices":306,"material":13,"mode":4}]},{"name":"Object_53","primitives":[{"attributes":{"NORMAL":308,"POSITION":307,"TEXCOORD_0":309},"indices":310,"material":13,"mode":4}]},{"name":"Object_54","primitives":[{"attributes":{"NORMAL":312,"POSITION":311,"TEXCOORD_0":313},"indices":314,"material":13,"mode":4}]},{"name":"Object_55","primitives":[{"attributes":{"NORMAL":316,"POSITION":315,"TEXCOORD_0":317},"indices":318,"material":24,"mode":4}]},{"name":"Object_56","primitives":[{"attributes":{"NORMAL":320,"POSITION":319,"TEXCOORD_0":321},"indices":322,"material":17,"mode":4}]},{"name":"Object_57","primitives":[{"attributes":{"NORMAL":324,"POSITION":323,"TEXCOORD_0":325,"TEXCOORD_1":326},"indices":327,"material":25,"mode":4}]},{"name":"Object_58","primitives":[{"attributes":{"NORMAL":329,"POSITION":328,"TEXCOORD_0":330},"indices":331,"material":17,"mode":4}]},{"name":"Object_59","primitives":[{"attributes":{"NORMAL":333,"POSITION":332,"TANGENT":334,"TEXCOORD_0":335,"TEXCOORD_1":336,"TEXCOORD_2":337,"TEXCOORD_3":338},"indices":339,"material":3,"mode":4}]},{"name":"Object_60","primitives":[{"attributes":{"NORMAL":341,"POSITION":340,"TEXCOORD_0":342},"indices":343,"material":4,"mode":4}]},{"name":"Object_61","primitives":[{"attributes":{"NORMAL":345,"POSITION":344,"TANGENT":346,"TEXCOORD_0":347,"TEXCOORD_1":348,"TEXCOORD_2":349,"TEXCOORD_3":350},"indices":351,"material":1,"mode":4}]},{"name":"Object_62","primitives":[{"attributes":{"NORMAL":353,"POSITION":352,"TEXCOORD_0":354},"indices":355,"material":5,"mode":4}]},{"name":"Object_63","primitives":[{"attributes":{"NORMAL":357,"POSITION":356,"TEXCOORD_0":358},"indices":359,"material":26,"mode":4}]},{"name":"Object_64","primitives":[{"attributes":{"NORMAL":361,"POSITION":360,"TEXCOORD_0":362},"indices":363,"material":27,"mode":4}]},{"name":"Object_65","primitives":[{"attributes":{"NORMAL":365,"POSITION":364,"TANGENT":366,"TEXCOORD_0":367,"TEXCOORD_1":368,"TEXCOORD_2":369,"TEXCOORD_3":370},"indices":371,"material":1,"mode":4}]},{"name":"Object_66","primitives":[{"attributes":{"NORMAL":373,"POSITION":372,"TEXCOORD_0":374},"indices":375,"material":5,"mode":4}]},{"name":"Object_67","primitives":[{"attributes":{"NORMAL":377,"POSITION":376,"TEXCOORD_0":378},"indices":379,"material":7,"mode":4}]},{"name":"Object_68","primitives":[{"attributes":{"NORMAL":381,"POSITION":380,"TANGENT":382,"TEXCOORD_0":383,"TEXCOORD_1":384,"TEXCOORD_2":385,"TEXCOORD_3":386},"indices":387,"material":6,"mode":4}]}],"nodes":[{"children":[1],"matrix":[1,0,0,0,0,2.220446049250313e-16,-1,0,0,1,2.220446049250313e-16,0,0,0,0,1],"name":"Sketchfab_model"},{"children":[2],"name":"root"},{"children":[3,5,7,9,11,14,16,18,21,23,25,27,29,31,36,38,41,43,45,47,49,51,53,55,57,59,61,63,65,67,69,71,73,75,77,80,82,89,91,93,95,97,99,101,103,106,108,111,113,115,117,119],"matrix":[1,0,0,0,0,2.220446049250313e-16,1,0,0,-1,2.220446049250313e-16,0,0,0,0,1],"name":"GLTF_SceneRootNode"},{"children":[4],"name":"Plane.002_1"},{"mesh":0,"name":"Object_4"},{"children":[6],"name":"Plane.003_2"},{"mesh":1,"name":"Object_6"},{"children":[8],"name":"Plane.004_3"},{"mesh":2,"name":"Object_8"},{"children":[10],"name":"Plane.005_4"},{"mesh":3,"name":"Object_10"},{"children":[12,13],"name":"Plane.006_5"},{"mesh":4,"name":"Object_12"},{"mesh":5,"name":"Object_13"},{"children":[15],"name":"Circle_6"},{"mesh":6,"name":"Object_15"},{"children":[17],"name":"Cube.001_7"},{"mesh":7,"name":"Object_17"},{"children":[19,20],"matrix":[1,0,0,0,0,1,0,0,0,0,1,0,0.4238348603248596,0.059118688106536865,0.3928391933441162,1],"name":"Cube.002_8"},{"mesh":8,"name":"Object_19"},{"mesh":9,"name":"Object_20"},{"children":[22],"name":"Cube.003_9"},{"mesh":10,"name":"Object_22"},{"children":[24],"name":"Plane.007_10"},{"mesh":11,"name":"Object_24"},{"children":[26],"name":"Plane.009_11"},{"mesh":12,"name":"Object_26"},{"children":[28],"name":"Plane.010_12"},{"mesh":13,"name":"Object_28"},{"children":[30],"matrix":[0.7071067673170349,0.7071067950560599,0,0,-0.7071067950560599,0.7071067673170349,0,0,0,0,1,0,0,0.4106903076171875,1.2896376848220825,1],"name":"Plane.011_13"},{"mesh":14,"name":"Object_30"},{"children":[32,33,34,35],"name":"Plane.013_14","translation":[0.1775972545146942,0.3465580940246582,0.6487520933151245]},{"mesh":15,"name":"Object_32"},{"mesh":16,"name":"Object_33"},{"mesh":17,"name":"Object_34"},{"mesh":18,"name":"Object_35"},{"children":[37],"name":"Plane.016_15"},{"mesh":19,"name":"Object_37"},{"children":[39,40],"matrix":[0.7071067673170349,0.7071067950560599,0,0,-0.7071067950560599,0.7071067673170349,0,0,0,0,1,0,-0.0015106200007721782,0.4122008979320526,1.249243974685669,1],"name":"Plane_16"},{"mesh":20,"name":"Object_39"},{"mesh":21,"name":"Object_40"},{"children":[42],"name":"Plane.019_17"},{"mesh":22,"name":"Object_42"},{"children":[44],"name":"Plane.020_18"},{"mesh":23,"name":"Object_44"},{"children":[46],"name":"Plane.021_19"},{"mesh":24,"name":"Object_46"},{"children":[48],"name":"Plane.022_20"},{"mesh":25,"name":"Object_48"},{"children":[50],"name":"Plane.023_21"},{"mesh":26,"name":"Object_50"},{"children":[52],"name":"Plane.024_22"},{"mesh":27,"name":"Object_52"},{"children":[54],"name":"Plane.025_23"},{"mesh":28,"name":"Object_54"},{"children":[56],"name":"Plane.026_24"},{"mesh":29,"name":"Object_56"},{"children":[58],"name":"Plane.027_25"},{"mesh":30,"name":"Object_58"},{"children":[60],"name":"Plane.028_26"},{"mesh":31,"name":"Object_60"},{"children":[62],"name":"Cube.004_27"},{"mesh":32,"name":"Object_62"},{"children":[64],"name":"Cube.005_28"},{"mesh":33,"name":"Object_64"},{"children":[66],"matrix":[1,0,0,0,0,1,0,0,0,0,1,0,-0.07019811868667603,0.484566867351532,0.09669885039329529,1],"name":"Circle.001_29"},{"mesh":34,"name":"Object_66"},{"children":[68],"name":"Cube.007_30"},{"mesh":35,"name":"Object_68"},{"children":[70],"name":"Cube.006_31"},{"mesh":36,"name":"Object_70"},{"children":[72],"name":"Circle.002_32"},{"mesh":37,"name":"Object_72"},{"children":[74],"name":"Plane.029_33"},{"mesh":38,"name":"Object_74"},{"children":[76],"name":"Plane.030_34"},{"mesh":39,"name":"Object_76"},{"children":[78,79],"name":"Plane.031_35"},{"mesh":40,"name":"Object_78"},{"mesh":41,"name":"Object_79"},{"children":[81],"name":"Plane.032_36"},{"mesh":42,"name":"Object_81"},{"children":[83,84,85,86,87,88],"matrix":[1,0,0,0,0,1,0,0,0,0,1,0,0.12083989381790161,0.492647647857666,0.7582898736000061,1],"name":"Plane.036_37"},{"mesh":43,"name":"Object_83"},{"mesh":44,"name":"Object_84"},{"mesh":45,"name":"Object_85"},{"mesh":46,"name":"Object_86"},{"mesh":47,"name":"Object_87"},{"mesh":48,"name":"Object_88"},{"children":[90],"name":"Plane.033_38"},{"mesh":49,"name":"Object_90"},{"children":[92],"name":"Plane.034_39"},{"mesh":50,"name":"Object_92"},{"children":[94],"matrix":[1,0,0,0,0,1,0,0,0,0,1,0,0.06353726983070374,0.43553635478019714,0.7511330246925354,1],"name":"Plane.035_40"},{"mesh":51,"name":"Object_94"},{"children":[96],"name":"Plane.037_41"},{"mesh":52,"name":"Object_96"},{"children":[98],"name":"Plane.038_42"},{"mesh":53,"name":"Object_98"},{"children":[100],"name":"Plane.039_43"},{"mesh":54,"name":"Object_100"},{"children":[102],"name":"Plane.041_44"},{"mesh":55,"name":"Object_102"},{"children":[104,105],"name":"Plane.040_45"},{"mesh":56,"name":"Object_104"},{"mesh":57,"name":"Object_105"},{"children":[107],"matrix":[1,0,0,0,0,1,0,0,0,0,1,0,0.03456319123506546,0.4365253746509552,0.7589763402938843,1],"name":"Circle.003_46"},{"mesh":58,"name":"Object_107"},{"children":[109,110],"name":"Cube.009_47"},{"mesh":59,"name":"Object_109"},{"mesh":60,"name":"Object_110"},{"children":[112],"name":"Circle.004_48"},{"mesh":61,"name":"Object_112"},{"children":[114],"name":"Circle.005_49"},{"mesh":62,"name":"Object_114"},{"children":[116],"name":"Cube.010_50"},{"mesh":63,"name":"Object_116"},{"children":[118],"name":"Plane.017_51"},{"mesh":64,"name":"Object_118"},{"children":[120,121,122,123],"name":"Plane.014_53","translation":[-0.1775972545146942,0.3465580940246582,0.6487520933151245]},{"mesh":65,"name":"Object_120"},{"mesh":66,"name":"Object_121"},{"mesh":67,"name":"Object_122"},{"mesh":68,"name":"Object_123"}],"samplers":[{"magFilter":9729,"minFilter":9987,"wrapS":10497,"wrapT":10497}],"scene":0,"scenes":[{"name":"Sketchfab_Scene","nodes":[0]}],"textures":[{"sampler":0,"source":0},{"sampler":0,"source":1},{"sampler":0,"source":2},{"sampler":0,"source":3},{"sampler":0,"source":4},{"sampler":0,"source":5},{"sampler":0,"source":6},{"sampler":0,"source":7},{"sampler":0,"source":8},{"sampler":0,"source":9},{"sampler":0,"source":10},{"sampler":0,"source":11},{"sampler":0,"source":12},{"sampler":0,"source":13},{"sampler":0,"source":14},{"sampler":0,"source":15},{"sampler":0,"source":16},{"sampler":0,"source":17},{"sampler":0,"source":18},{"sampler":0,"source":19},{"sampler":0,"source":20},{"sampler":0,"source":21},{"sampler":0,"source":22},{"sampler":0,"source":23},{"sampler":0,"source":24},{"sampler":0,"source":25},{"sampler":0,"source":26},{"sampler":0,"source":27}]}